<?xml version="1.0" encoding="utf-8"?>
<!-- Generator: Adobe Illustrator 19.0.0, SVG Export Plug-In . SVG Version: 6.00 Build 0)  -->
<svg version="1.1" id="Layer_1" xmlns="http://www.w3.org/2000/svg" xmlns:xlink="http://www.w3.org/1999/xlink" x="0px" y="0px"
	 viewBox="-405 202 100 90" style="enable-background:new -405 202 100 90;" xml:space="preserve">
<style type="text/css">
	.st0{clip-path:url(#SVGID_2_);}
	.st1{fill:#FFFFFF;}
	.st2{fill:#FE776B;}
	.st3{fill:#FEFEFE;}
	.st4{fill:none;stroke:#5B688C;stroke-width:2;stroke-linecap:round;stroke-linejoin:round;stroke-miterlimit:10;}
	.st5{fill:#5B688C;}
</style>
<g>
	<g>
		<g>
			<g>
				<defs>
					<rect id="SVGID_1_" x="-397.1" y="204.9" width="84.3" height="84.3"/>
				</defs>
				<clipPath id="SVGID_2_">
					<use xlink:href="#SVGID_1_"  style="overflow:visible;"/>
				</clipPath>
				<g class="st0">
					<path class="st1" d="M-378.5,286.7c-9,0-16.3-7.2-16.3-16.3v-46.9c0-9,7.2-16.3,16.3-16.3h46.9c9,0,16.3,7.2,16.3,16.3v46.9
						c0,9-7.2,16.3-16.3,16.3H-378.5L-378.5,286.7z"/>
					<path class="st2" d="M-331.6,209.7c7.6,0,13.9,6.2,13.9,13.9v46.9c0,7.6-6.2,13.9-13.9,13.9h-46.9c-7.6,0-13.9-6.2-13.9-13.9
						v-46.9c0-7.6,6.2-13.9,13.9-13.9H-331.6z M-331.6,204.9h-46.9c-10.3,0-18.6,8.4-18.6,18.6v46.9c0,10.3,8.4,18.6,18.6,18.6h46.9
						c10.3,0,18.6-8.3,18.6-18.6v-46.9C-313,213.3-321.4,204.9-331.6,204.9z"/>
					<path class="st2" d="M-363.5,226.5h-16.8c-3.2,0-5.9,2.5-5.9,5.9v23.5h28.5v-23.5C-357.7,229.2-360.3,226.5-363.5,226.5z"/>
					<path class="st2" d="M-318,220.9c-1.3-6.4-6.7-12-13.4-12l-48.4-0.7c-6.8,0-12.1,4.8-12.2,12.6L-318,220.9L-318,220.9z"/>
					<path class="st3" d="M-380.6,214.1c0,1.2-1,2.1-2.1,2.1s-2.1-1-2.1-2.1s1-2.1,2.1-2.1C-381.5,211.9-380.6,212.9-380.6,214.1z"
						/>
					<path class="st3" d="M-372.1,214.1c0,1.2-1,2.1-2.1,2.1s-2.1-1-2.1-2.1s1-2.1,2.1-2.1S-372.1,212.9-372.1,214.1z"/>
					<path class="st3" d="M-363.8,214.1c0,1.2-1,2.1-2.1,2.1s-2.1-1-2.1-2.1s1-2.1,2.1-2.1S-363.8,212.9-363.8,214.1z"/>
					<path class="st2" d="M-360.8,262H-386v1.6h25.2V262z"/>
					<path class="st2" d="M-360.8,268.2H-386v1.6h25.2V268.2z"/>
					<path class="st2" d="M-360.8,274.3H-386v1.6h25.2V274.3z"/>
					<path class="st4" d="M-359.9,261.6l0.8,1.7l2-3.9"/>
					<path class="st4" d="M-359.9,268.1l0.8,1.7l2-3.9"/>
					<path class="st4" d="M-359.9,274.2l0.8,1.7l2-3.9"/>
					<path class="st2" d="M-330.5,226.5h-16.8c-3.2,0-5.9,2.5-5.9,5.9v23.5h28.5v-23.5C-324.7,229.2-327.3,226.5-330.5,226.5z"/>
					<path class="st2" d="M-327.5,262.4h-25.2v1.6h25.2V262.4z"/>
					<path class="st2" d="M-327.5,268.6h-25.2v1.6h25.2V268.6z"/>
					<path class="st2" d="M-327.5,274.7h-25.2v1.6h25.2V274.7z"/>
					<path class="st4" d="M-326.6,262l0.8,1.7l2-3.9"/>
					<path class="st4" d="M-326.6,268.4l0.8,1.7l2-3.9"/>
					<path class="st4" d="M-326.6,274.6l0.8,1.7l2-3.9"/>
					<path class="st5" d="M-371.9,235.5l-3.5,10.3h-2.2l4.5-12h1.4L-371.9,235.5z M-368.9,245.9l-3.5-10.3l-0.2-1.7h1.5l4.5,12
						H-368.9z M-369.1,241.5v1.7h-6.5v-1.7H-369.1z"/>
					<path class="st5" d="M-338.4,242.2h-3v-1.6h2.6c0.5,0,0.9-0.1,1.2-0.2c0.3-0.1,0.6-0.3,0.8-0.6s0.3-0.6,0.3-1s-0.1-0.8-0.2-1
						c-0.2-0.3-0.4-0.5-0.7-0.6s-0.7-0.2-1.3-0.2h-2.1v10.3h-2.1v-12h4c0.7,0,1.3,0.1,1.8,0.2c0.5,0.1,1,0.3,1.4,0.6
						c0.4,0.3,0.7,0.6,0.9,1c0.2,0.4,0.3,0.9,0.3,1.5c0,0.5-0.1,1-0.4,1.4c-0.2,0.4-0.6,0.8-1.1,1c-0.5,0.3-1.1,0.4-1.8,0.5
						L-338.4,242.2z M-338.5,247.6h-3.6l1-1.7h2.6c0.5,0,0.9-0.1,1.2-0.2c0.3-0.2,0.6-0.4,0.7-0.7c0.2-0.3,0.2-0.6,0.2-1
						c0-0.4-0.1-0.8-0.2-1.1s-0.4-0.5-0.7-0.7c-0.3-0.2-0.7-0.2-1.2-0.2h-2.3v-1.6h3l0.5,0.6c0.7,0,1.3,0.2,1.7,0.5s0.8,0.6,1,1.1
						c0.2,0.4,0.3,0.9,0.3,1.4c0,0.8-0.2,1.5-0.5,2c-0.3,0.5-0.8,0.9-1.5,1.2C-336.9,247.4-337.7,247.6-338.5,247.6z"/>
				</g>
			</g>
		</g>
	</g>
</g>
</svg>
