<?xml version="1.0" encoding="utf-8"?>
<!-- Generator: Adobe Illustrator 19.0.0, SVG Export Plug-In . SVG Version: 6.00 Build 0)  -->
<svg version="1.1" id="Layer_1" xmlns="http://www.w3.org/2000/svg" xmlns:xlink="http://www.w3.org/1999/xlink" x="0px" y="0px"
	 viewBox="-405 202 100 90" style="enable-background:new -405 202 100 90;" xml:space="preserve">
<style type="text/css">
	.st0{fill:#FFFFFF;}
	.st1{fill:#FE776B;}
	.st2{fill:#5B688C;}
	.st3{fill:#FF8986;}
	.st4{fill:#7283B0;}
	.st5{fill:none;stroke:#FFFFFF;stroke-width:4;stroke-linecap:round;stroke-linejoin:round;stroke-miterlimit:10;}
</style>
<g>
	<path class="st0" d="M-384.6,289c-9.4,0-17.1-7-17.1-15.7v-45.3c0-8.7,7.7-15.7,17.1-15.7h49.3c9.4,0,17.1,7,17.1,15.7v45.3
		c0,8.7-7.7,15.7-17.1,15.7H-384.6z"/>
	<path class="st1" d="M-335.2,214.7c8,0,14.6,6,14.6,13.4v45.3c0,7.4-6.5,13.4-14.6,13.4h-49.4c-8,0-14.6-6-14.6-13.4v-45.3
		c0-7.4,6.5-13.4,14.6-13.4L-335.2,214.7L-335.2,214.7z M-335.2,210h-49.4c-10.8,0-19.6,8.1-19.6,18v45.3c0,9.9,8.8,18,19.6,18h49.3
		c10.8,0,19.6-8.1,19.6-18v-45.3C-315.6,218.1-324.4,210-335.2,210z"/>
	<path class="st2" d="M-334.1,273.3h-53c-2.8,0-5-2.1-5-4.6v-28.2c0-2.5,2.2-4.6,5-4.6h52.9c2.8,0,5,2.1,5,4.6v28.2
		C-329.1,271.3-331.3,273.3-334.1,273.3z"/>
	<path class="st3" d="M-360.6,259.7l28.2-23.5c-0.6-0.2-1.3-0.3-2.1-0.3h-52.1c-1.1,0-2.1,0.3-2.9,0.7L-360.6,259.7z"/>
	<path class="st1" d="M-360.6,259.7l28.2-23.5c-0.6-0.2-1.3-0.3-2.1-0.3h-52.1c-1.1,0-2.1,0.3-2.9,0.7L-360.6,259.7z"/>
	<path class="st2" d="M-329.4,238.7l-17.1,14.3l17.5,13.5v-26.4C-329.1,239.6-329.2,239.1-329.4,238.7z"/>
	<path class="st2" d="M-375.1,253l-16.8-13.4c0,0.2-0.1,0.3-0.1,0.5v26.8L-375.1,253z"/>
	<path class="st1" d="M-349.5,255.4l-11,9.2l-11.5-9.2l-19.3,15.7c0.9,1.3,2.7,2.2,4.7,2.2h52.1c2.2,0,4.1-1,5-2.5L-349.5,255.4z"/>
	<path class="st4" d="M-306.1,209c-3.2,0-6.7-0.3-10.3-1.1c-5.1-1.1-9.6-2.9-13-5.1h-0.1h-0.1c-3.4,2.2-7.9,4-13,5.1
		c-3.6,0.8-7.1,1.1-10.3,1.1c-0.1,0.3-0.1,0.6-0.1,0.9c0,34.6,23.6,40.3,23.6,40.3s23.6-5.8,23.6-40.3
		C-306,209.6-306,209.3-306.1,209z"/>
	<path class="st5" d="M-337.6,225.2l6.8,5.8l11.2-12"/>
</g>
</svg>
