<?xml version="1.0" encoding="utf-8"?>
<!-- Generator: Adobe Illustrator 19.0.0, SVG Export Plug-In . SVG Version: 6.00 Build 0)  -->
<svg version="1.1" id="Layer_1" xmlns="http://www.w3.org/2000/svg" xmlns:xlink="http://www.w3.org/1999/xlink" x="0px" y="0px"
	 viewBox="-405 202 100 90" style="enable-background:new -405 202 100 90;" xml:space="preserve">
<style type="text/css">
	.st0{fill:none;}
	.st1{fill:#F3776C;}
	.st2{fill:none;stroke:#6C85B4;stroke-width:6;stroke-linecap:round;stroke-miterlimit:10;}
	.st3{fill:#FFFFFF;}
	.st4{fill:#6C85B4;}
</style>
<rect x="-815.2" y="400.7" class="st0" width="110.3" height="96.7"/>
<g>
	<g>
		<path class="st1" d="M-335.3,211.9c5.7,0,10.4,4.7,10.4,10.4v49.4c0,5.7-4.7,10.4-10.4,10.4h-47.5c-5.7,0-10.4-4.7-10.4-10.4
			v-49.4c0-5.7,4.7-10.4,10.4-10.4H-335.3 M-335.3,207.4h-47.5c-8.2,0-14.9,6.7-14.9,14.9v49.4c0,8.2,6.7,14.9,14.9,14.9h47.5
			c8.2,0,14.9-6.7,14.9-14.9v-49.4C-320.4,214-327.1,207.4-335.3,207.4L-335.3,207.4z"/>
	</g>
	<path class="st1" d="M-322.8,252.2h-52.7c-5.8,0-10.4-4.8-10.4-10.5l0,0c0-5.8,4.8-10.4,10.4-10.4h52.7c5.8,0,10.5,4.8,10.5,10.4
		l0,0C-312.3,247.5-316.9,252.2-322.8,252.2z"/>
	<path class="st2" d="M-356.2,260.5c3.6,6.5,7.4,13,11.3,19.2"/>
	<g>
		<path class="st3" d="M-367.9,244.3c0.5,0.4,1.3,0.6,2,0.6c1.2,0,1.9-0.6,1.9-1.6c0-0.8-0.5-1.4-1.7-1.8c-1.5-0.5-2.4-1.3-2.4-2.6
			c0-1.5,1.2-2.4,2.9-2.4c0.9,0,1.6,0.2,1.9,0.5l-0.4,1c-0.3-0.2-0.9-0.5-1.7-0.5c-1.3,0-1.7,0.7-1.7,1.4c0,0.8,0.5,1.3,1.8,1.7
			c1.6,0.6,2.3,1.4,2.3,2.7c0,1.5-1.1,2.6-3.1,2.6c-0.9,0-1.8-0.3-2.3-0.5L-367.9,244.3z"/>
		<path class="st3" d="M-356.6,237.3v1.9h1.7v0.9h-1.7v3.5c0,0.8,0.3,1.3,0.9,1.3c0.3,0,0.5,0,0.7-0.1l0.1,0.9
			c-0.3,0.1-0.6,0.2-1.1,0.2c-0.5,0-1-0.2-1.3-0.5c-0.4-0.4-0.5-0.9-0.5-1.7V240h-1v-0.9h1v-1.6L-356.6,237.3z"/>
		<path class="st3" d="M-346.6,245.7l-0.1-0.8l0,0c-0.4,0.5-1.1,1-1.9,1c-1.4,0-1.9-0.9-1.9-1.9c0-1.6,1.5-2.4,3.9-2.4v-0.2
			c0-0.5-0.2-1.6-1.5-1.6c-0.6,0-1.3,0.2-1.7,0.5l-0.3-0.8c0.5-0.4,1.4-0.5,2.1-0.5c1.9,0,2.5,1.4,2.5,2.7v2.4c0,0.5,0,1.1,0.1,1.6
			L-346.6,245.7L-346.6,245.7z M-346.8,242.4c-1.3,0-2.7,0.2-2.7,1.5c0,0.8,0.5,1.2,1.1,1.2c0.8,0,1.4-0.5,1.6-1.1
			c0-0.1,0.1-0.3,0.1-0.4L-346.8,242.4L-346.8,242.4z"/>
		<path class="st3" d="M-339.2,237.3v1.9h1.7v0.9h-1.7v3.5c0,0.8,0.3,1.3,0.9,1.3c0.3,0,0.5,0,0.7-0.1l0.1,0.9
			c-0.3,0.1-0.6,0.2-1.1,0.2c-0.5,0-1-0.2-1.3-0.5c-0.4-0.4-0.5-0.9-0.5-1.7V240h-1v-0.9h1v-1.6L-339.2,237.3z"/>
		<path class="st3" d="M-327.4,243.9c0,0.7,0,1.3,0.1,1.8h-1.1l-0.1-1.1l0,0c-0.3,0.5-1,1.3-2.1,1.3c-1,0-2.2-0.5-2.2-2.8v-3.8h1.2
			v3.6c0,1.3,0.4,2,1.5,2c0.8,0,1.4-0.5,1.6-1.1c0.1-0.2,0.1-0.4,0.1-0.6v-4h1.2L-327.4,243.9L-327.4,243.9z"/>
		<path class="st3" d="M-322.5,244.4c0.4,0.3,1,0.5,1.6,0.5c0.9,0,1.3-0.5,1.3-1c0-0.5-0.4-0.9-1.3-1.2c-1.2-0.5-1.7-1.1-1.7-1.9
			c0-1.1,0.8-1.9,2.2-1.9c0.6,0,1.3,0.2,1.6,0.5l-0.3,0.9c-0.3-0.2-0.7-0.4-1.4-0.4c-0.7,0-1.1,0.4-1.1,0.9s0.4,0.8,1.3,1.1
			c1.2,0.5,1.7,1,1.7,1.9c0,1.2-0.9,1.9-2.4,1.9c-0.7,0-1.4-0.2-1.8-0.5L-322.5,244.4z"/>
	</g>
	<g>
		<path class="st4" d="M-367.6,222.2c10.6,0,19.2,8.7,19.2,19.2s-8.7,19.2-19.2,19.2s-19.2-8.7-19.2-19.2S-378.2,222.2-367.6,222.2
			 M-367.6,217.7c-13.2,0-23.7,10.6-23.7,23.7s10.6,23.7,23.7,23.7s23.7-10.6,23.7-23.7S-354.5,217.7-367.6,217.7L-367.6,217.7z"/>
	</g>
	<g>
		<path class="st3" d="M-376.7,236.5c0.2,0,0.3,0,0.5,0c0,0,0,0,0.1,0c0.5,0.1,1.1,0.3,1.5,0.6c0.6,0.5,1,1.2,1.1,1.9
			c0,0.5,0,1.1,0,1.6v0.1c0.2,0,0.3,0,0.5,0c0.4,0,0.5,0.2,0.5,0.5c0,1.7,0,3.3,0,5c0,0.4-0.2,0.6-0.6,0.6c-2.1,0-4.3,0-6.4,0
			c-0.4,0-0.6-0.2-0.6-0.6c0-1.7,0-3.3,0-5c0-0.1,0-0.2,0-0.2c0.1-0.3,0.3-0.4,0.5-0.4c0.2,0,0.4,0,0.5,0c0-0.1,0-0.1,0-0.1
			c0-0.5,0-0.9,0-1.4c0-0.2,0-0.4,0.1-0.5c0.3-1.2,1-1.9,2-2.2C-377,236.6-376.8,236.6-376.7,236.5z M-374.8,240.8L-374.8,240.8
			c0-0.5,0-1,0-1.6c0-0.1,0-0.3,0-0.4c-0.2-1-1.1-1.6-2-1.4c-0.8,0.1-1.5,0.8-1.5,1.6c0,0.5,0,1,0,1.6v0.1
			C-377.1,240.8-375.9,240.8-374.8,240.8z"/>
	</g>
</g>
</svg>
