<?xml version="1.0" encoding="utf-8"?>
<!-- Generator: Adobe Illustrator 19.0.0, SVG Export Plug-In . SVG Version: 6.00 Build 0)  -->
<svg version="1.1" id="Layer_1" xmlns="http://www.w3.org/2000/svg" xmlns:xlink="http://www.w3.org/1999/xlink" x="0px" y="0px"
	 viewBox="-405 202 100 90" style="enable-background:new -405 202 100 90;" xml:space="preserve">
<style type="text/css">
	.st0{fill:#FFFFFF;}
	.st1{fill:#FE776B;}
	.st2{fill:#5B688C;}
</style>
<path class="st0" d="M-332.4,283.1h-45.2c-7.4,0-13.4-6-13.4-13.4v-45.4c0-7.4,6-13.4,13.4-13.4h45.2c7.4,0,13.4,6,13.4,13.4v45.4
	C-319,277.1-325,283.1-332.4,283.1z"/>
<g>
	<path class="st0" d="M-377.6,288.8c-8.6,0-15.7-7.1-15.7-15.7v-45.4c0-8.7,7-15.7,15.7-15.7h45.2c8.6,0,15.7,7.1,15.7,15.7v45.4
		c0,8.7-7,15.7-15.7,15.7H-377.6z"/>
	<path class="st1" d="M-332.4,214.3c7.4,0,13.4,6,13.4,13.4v45.4c0,7.4-6,13.4-13.4,13.4h-45.2c-7.4,0-13.4-6-13.4-13.4v-45.4
		c0-7.4,6-13.4,13.4-13.4H-332.4 M-332.4,209.6h-45.2c-9.9,0-18,8.1-18,18.1v45.4c0,10,8.1,18.1,18,18.1h45.2c9.9,0,18-8.1,18-18.1
		v-45.4C-314.4,217.8-322.4,209.6-332.4,209.6z"/>
	<g>
		<path class="st1" d="M-326,221.6h-58V289h57.9v-67.3H-326z"/>
		<path class="st0" d="M-350.5,241.1c2.5-2.5,2.5-6.5,0-9s-6.5-2.5-9,0s-2.5,6.5,0,9S-353,243.6-350.5,241.1z"/>
		<path class="st0" d="M-346.1,252.8h-17.8c0-4.2,3.4-7.5,7.5-7.5h2.8C-349.4,245.3-346.1,248.6-346.1,252.8z"/>
		<path class="st2" d="M-332.7,259.5h-44.6v1.9h44.6V259.5z"/>
		<path class="st2" d="M-332.7,265.3h-44.6v1.9h44.6V265.3z"/>
		<path class="st2" d="M-332.7,271h-44.6v1.9h44.6V271z"/>
		<path class="st2" d="M-332.7,276.8h-44.6v1.9h44.6V276.8z"/>
	</g>
	<path class="st2" d="M-354,228.1v-1.3c2.1,0,3.8-0.7,5.1-2c2.6-2.7,2.4-7.3,2.4-7.3l1.3-0.1c0,0.2,0.2,5.2-2.8,8.3
		C-349.4,227.3-351.5,228.1-354,228.1z"/>
	<path class="st2" d="M-357.8,207.8h-1.3v13.8h1.3V207.8z"/>
	<path class="st2" d="M-354.9,206.3c0,2-1.6,3.6-3.6,3.6s-3.6-1.6-3.6-3.6s1.6-3.6,3.6-3.6C-356.5,202.8-354.9,204.3-354.9,206.3z"
		/>
	<path class="st2" d="M-345.2,217.9v-2.1l-2.7,2.7h2.6L-345.2,217.9z"/>
</g>
</svg>
