<?xml version="1.0" encoding="utf-8"?>
<!-- Generator: Adobe Illustrator 19.0.0, SVG Export Plug-In . SVG Version: 6.00 Build 0)  -->
<svg version="1.1" id="Layer_1" xmlns="http://www.w3.org/2000/svg" xmlns:xlink="http://www.w3.org/1999/xlink" x="0px" y="0px"
	 viewBox="0 0 632 251" style="enable-background:new 0 0 632 251;" xml:space="preserve">
<style type="text/css">
	.st0{fill:#8DBFE7;}
	.st1{fill:#A65525;stroke:#D8D9D8;stroke-miterlimit:10;}
	.st2{fill:url(#XMLID_393_);}
	.st3{fill-rule:evenodd;clip-rule:evenodd;fill:#F7F8F8;}
	.st4{fill-rule:evenodd;clip-rule:evenodd;fill:#5493AA;}
	.st5{fill-rule:evenodd;clip-rule:evenodd;fill:#2F6078;}
	.st6{fill-rule:evenodd;clip-rule:evenodd;fill:#6A9196;}
	.st7{fill-rule:evenodd;clip-rule:evenodd;fill:#3B7386;}
	.st8{fill-rule:evenodd;clip-rule:evenodd;fill:#FFFFFF;}
	.st9{fill-rule:evenodd;clip-rule:evenodd;fill:#93B8C9;}
	.st10{fill-rule:evenodd;clip-rule:evenodd;fill:#989899;}
	.st11{fill-rule:evenodd;clip-rule:evenodd;fill:#D7D6D6;}
	.st12{fill-rule:evenodd;clip-rule:evenodd;fill:#5A5A5C;}
	.st13{fill-rule:evenodd;clip-rule:evenodd;fill:#BF8F6F;}
	.st14{fill-rule:evenodd;clip-rule:evenodd;fill:#E7AE83;}
	.st15{fill-rule:evenodd;clip-rule:evenodd;fill:#C6D3EC;}
	.st16{fill-rule:evenodd;clip-rule:evenodd;fill:#CDD8ED;}
	.st17{fill-rule:evenodd;clip-rule:evenodd;fill:#9CAED7;}
	.st18{fill-rule:evenodd;clip-rule:evenodd;fill:#DDE5F4;}
	.st19{fill-rule:evenodd;clip-rule:evenodd;fill:#3E57A1;}
	.st20{fill-rule:evenodd;clip-rule:evenodd;fill:#232E5A;}
	.st21{fill-rule:evenodd;clip-rule:evenodd;fill:#141A2D;}
	.st22{fill-rule:evenodd;clip-rule:evenodd;fill:#304588;}
	.st23{fill-rule:evenodd;clip-rule:evenodd;fill:#7088C1;}
	.st24{fill-rule:evenodd;clip-rule:evenodd;fill:#C6424E;}
	.st25{fill-rule:evenodd;clip-rule:evenodd;fill:#EFCDB0;}
	.st26{fill:none;stroke:#FFFFFF;stroke-miterlimit:10;}
	.st27{fill:#A65525;}
	.st28{fill:none;stroke:#8DBFE7;stroke-miterlimit:10;}
	.st29{fill:#E5BC67;}
	.st30{fill:#FFFFFF;}
	.st31{fill:#147EC2;}
	.st32{fill:#6EA1C4;}
	.st33{fill:none;stroke:#FFFFFF;stroke-width:1.8;stroke-miterlimit:10;}
	.st34{fill:#4BC6E5;}
	.st35{fill:none;stroke:#8DBFE7;stroke-width:2.991;stroke-miterlimit:10;}
	.st36{fill:#2CA3DD;}
	.st37{fill:none;stroke:#FFFFFF;stroke-width:0.5;stroke-miterlimit:10;}
	.st38{fill:#58C8E0;}
	.st39{fill:#6ECEED;}
</style>
<g id="XMLID_1_">
	<g id="XMLID_391_">
		<polygon id="XMLID_392_" class="st0" points="320.2,61.1 320.2,30.6 293.5,15.4 266.8,30.6 266.8,61.1 293.5,76.4 		"/>
	</g>
	<g id="XMLID_380_">
		<g id="XMLID_381_">
			<path id="XMLID_382_" class="st1" d="M156.5,87.4c0-4.7-3.8-8.5-8.5-8.5s-8.5,3.8-8.5,8.5v9.3h17V87.4z M151.9,87.4
				c0-2.1-1.7-3.9-3.9-3.9c-0.4,0-0.8-0.3-0.8-0.8c0-0.4,0.3-0.8,0.8-0.8c3,0,5.4,2.4,5.4,5.4c0,0.4-0.3,0.8-0.8,0.8
				C152.2,88.2,151.9,87.8,151.9,87.4z M151.9,94.4v-4.6c0-0.4,0.3-0.8,0.8-0.8c0.4,0,0.8,0.3,0.8,0.8v4.6c0,0.4-0.3,0.8-0.8,0.8
				C152.2,95.1,151.9,94.8,151.9,94.4z M156.5,107.5v-9.3h-17v9.3c0,4.7,3.8,8.5,8.5,8.5S156.5,112.2,156.5,107.5z M142.6,105.2
				v-4.6c0-0.4,0.3-0.8,0.8-0.8c0.4,0,0.8,0.3,0.8,0.8v4.6c0,0.4-0.3,0.8-0.8,0.8C142.9,106,142.6,105.6,142.6,105.2z M142.6,107.5
				c0-0.4,0.3-0.8,0.8-0.8c0.4,0,0.8,0.3,0.8,0.8c0,2.1,1.7,3.9,3.9,3.9c0.4,0,0.8,0.3,0.8,0.8c0,0.4-0.3,0.8-0.8,0.8
				C145,112.9,142.6,110.5,142.6,107.5z"/>
		</g>
	</g>
	<g id="Layer0_0_FILL_1_">
		
			<linearGradient id="XMLID_393_" gradientUnits="userSpaceOnUse" x1="331.8449" y1="-7.4077" x2="331.8449" y2="243.5923" gradientTransform="matrix(0.9973 0 0 -1 -14.4408 243.6)">
			<stop  offset="0" style="stop-color:#478AB7"/>
			<stop  offset="1" style="stop-color:#A8DEE8"/>
		</linearGradient>
		<path id="XMLID_3_" class="st2" d="M633,251V0H0v251H633z"/>
	</g>
	<path id="XMLID_378_" class="st3" d="M584-1c-82.2,17.3-16.4,86.2-58.7,150.6c-37.3,56.7-131.6-0.3-143,101.4l251.9,0.3L634-0.6
		L584-1z"/>
	<g id="XMLID_375_">
		<path id="XMLID_377_" class="st4" d="M484.5,248.8c0,0-0.6,0.9-2,2.2h-29.1c0.3-0.5,0.6-0.9,1-1.4c3.6-4.9-3-3.6-4.9,0.4
			c-0.2,0.3-0.3,0.7-0.4,1h-15.8c-0.2-1.6-1.5-1.3-3,0h-29.1l0,0c1.2-1,2-1.1,3.7-0.9c1.8,0.2,5.8,0,4.7-1.1
			c-1.2-1.2-4.6-0.7-4.7-0.8c-0.1-0.1,0-0.1,0-0.2c2.3-1.9,4.8-3.7,7.4-5.5c2.9-1.9,5.5-0.5,9.1,1.3c3.7,1.9,7.1,0.8,5.1-1.6
			c-2-2.4-9-2.4-9.2-2.6c-0.2-0.2,0-0.4,0.1-0.4c4.4-2.6,9-4.9,13.9-6.7c2.5-0.6,4.9,0.9,8.7,2.3c3.8,1.4,5.5-0.5,4.8-2
			c-0.8-1.5-5.2-1.9-5.5-2.2c-0.3-0.3-0.1-0.4-0.1-0.4c4.8-1.1,9.8-1.5,14.8-1.1C493.5,232.1,484.5,248.8,484.5,248.8z"/>
		<path id="XMLID_376_" class="st5" d="M471.8,232.4c-22.4,5.3-42.9,12.9-57,18.6h4.5c14.3-5.7,34.2-12.8,55.5-17.6
			C473.9,233.1,472.9,232.7,471.8,232.4z"/>
	</g>
	<g id="XMLID_372_">
		<path id="XMLID_374_" class="st5" d="M481.1,208.7c0,0-14.9-2.7-23.9-26.6c0,0,0-0.1,0-0.1c-0.1-0.2-0.1-0.6,0.3-0.7
			c0.6-0.2,6-0.4,12.1,1c6.1,1.4,2.5-4-2.2-4.2c-4.7-0.2-8.6,0.8-10.1,0.6c-1.5-0.2-2-1.3-2-1.3h0c-1.9-4.6-4.1-9.2-6.5-13.7v0
			c0,0-0.4-1,1.2-0.5c1.6,0.5,7.6,2.2,10.5,0.8c2.9-1.4-2.3-4-7.6-3.8s-6,0.1-6.3-0.4h0c-1.9-3.5-3.9-6.8-5.8-9.9l0,0
			c0,0-0.2-0.6,0.6-0.5c0.8,0.1,7.4,2,9.2,0.4c1.8-1.7-2.6-4.1-6.7-3.4c-4.1,0.7-4.9,0.6-5.2,0.2h0c-6-9.1-11.6-15.9-14.9-18.3
			c-3.5-2.5,9.8-0.1,25.4,7.3c1.4,0.7,1.7,1.4,2.2,2.9c0.5,1.7,2,5.2,2.8,3.7c0.7-1.5-0.9-4.4-0.9-4.5c0-0.1,0.1-0.1,0.2-0.1
			c2.7,1.4,5.4,2.9,8.1,4.6c2.9,1.9,2.5,4.7,2,8.5c-0.5,4,1.7,6.6,3.4,4c1.6-2.6-0.9-8.8-0.8-9.1c0.1-0.2,0.4-0.1,0.4-0.1
			c4.1,2.9,8,6.3,11.5,9.9c1.5,2,0.9,4.7,0.8,8.6c0,3.9,2.5,4.7,3.7,3.5c1.2-1.3,0-5.2,0.2-5.7c0.2-0.4,0.4-0.3,0.4-0.2
			c2.8,3.9,5,8.1,6.4,12.7C500.7,210.7,481.1,208.7,481.1,208.7z"/>
		<path id="XMLID_373_" class="st6" d="M492.7,191.6c-24-32.6-53.3-57.3-53.4-57.4c-0.4-0.3-0.9-0.3-1.2,0.1
			c-0.3,0.3-0.3,0.9,0.1,1.2c0.1,0.1,30.6,25.8,54.7,59.2C492.8,193.7,492.7,192.7,492.7,191.6z"/>
	</g>
	<g id="XMLID_369_">
		<path id="XMLID_371_" class="st4" d="M471.4,226.4c0,0-14,5.4-35.3-9.9c0,0-0.1,0-0.1-0.1c-0.2-0.1-0.5-0.4-0.2-0.8
			c0.4-0.4,4.8-3.4,10.7-5.4c5.9-2-0.2-4.6-4.2-2.4c-4,2.2-6.7,5.1-8.1,5.7c-1.4,0.6-2.4-0.1-2.4-0.1h0c-4.3-2.9-8.8-5.6-13.3-8.1
			l0,0c0,0-0.9-0.6,0.7-1c1.7-0.4,7.6-2.1,9.3-4.8c1.7-2.7-4.3-2.2-8.5,0.7c-4.2,2.9-5,3.2-5.5,2.9l0,0c-3.6-1.9-7.1-3.7-10.6-5.3
			l0,0c0,0-0.5-0.4,0.2-0.8c0.7-0.3,7.4-2.1,7.9-4.5c0.5-2.3-4.5-2.1-7.6,0.6c-3.1,2.7-3.8,3.1-4.3,2.9h0c-10.2-4.5-18.9-7.3-23-7.6
			c-4.3-0.3,8.1-5.1,25.5-7c1.6-0.1,2.2,0.2,3.5,1.3c1.4,1.2,4.7,3.3,4.5,1.7c-0.2-1.6-3.3-3.2-3.3-3.3c0-0.1,0.1-0.1,0.1-0.1
			c3-0.2,6.2-0.3,9.4-0.3c3.5,0.1,4.8,2.6,6.6,6.1c1.9,3.6,5.2,4.6,5.1,1.6c-0.1-3-5.8-6.9-5.9-7.2c-0.1-0.3,0.2-0.3,0.3-0.3
			c5.1,0.3,10.3,1.1,15.3,2.4c2.4,0.9,3.4,3.5,5.6,6.8c2.2,3.3,4.8,2.7,5.1,1c0.3-1.7-3-4.4-3.1-4.8c-0.1-0.4,0.2-0.4,0.2-0.4
			c4.6,1.8,8.9,4.2,12.7,7.3C489,217.9,471.4,226.4,471.4,226.4z"/>
		<path id="XMLID_370_" class="st7" d="M471.3,206c-38.8-14.9-77.5-20.5-77.7-20.5c-0.5-0.1-0.9,0.2-1,0.7c-0.1,0.5,0.3,0.9,0.7,1
			c0.2,0,40.5,5.8,79.8,21.4C472.6,207.7,472,206.9,471.3,206z"/>
	</g>
	<g id="XMLID_366_">
		<path id="XMLID_368_" class="st4" d="M510.1,141.6c-17.7-14.5-30.2,7.5-28.1,29.5c1.3,13.7,10.1,48.4,15.4,79.9h12.6V141.6z"/>
		<path id="XMLID_367_" class="st8" d="M510.1,206.7c-3.7-33.5-10.6-59.1-10.7-59.2c-0.1-0.5-0.7-0.9-1.3-0.7
			c-0.6,0.1-0.9,0.7-0.8,1.2c0.1,0.2,11.6,42.6,12.7,89.5V206.7z"/>
	</g>
	<g id="XMLID_363_">
		<path id="XMLID_365_" class="st7" d="M460.8,194.2c-23.8-2.3-19.5,21.2-4.2,36.1c4.7,4.6,14.1,12,25.3,20.7H519v-7.4
			C500.2,217.8,477.7,195.8,460.8,194.2z"/>
		<path id="XMLID_364_" class="st9" d="M509,251c-26.9-27.7-54.3-46.8-54.5-46.9c-0.4-0.3-1-0.2-1.3,0.2c-0.3,0.4-0.2,1,0.2,1.3
			c0.1,0.1,26.7,18.7,53,45.5H509z"/>
	</g>
	<g id="XMLID_300_">
		<g id="XMLID_355_">
			<path id="XMLID_362_" class="st10" d="M618.1,25.1h-89c-7.1,0-13,5.5-13,12.3v201.3c0,6.8,5.8,12.3,13,12.3h89
				c7.1,0,13-5.5,13-12.3V37.4C631,30.6,625.2,25.1,618.1,25.1z"/>
			<path id="XMLID_361_" class="st11" d="M610.8,25.1h-89c-7.1,0-13,5.5-13,12.3v201.3c0,6.8,5.8,12.3,13,12.3h89
				c7.1,0,13-5.5,13-12.3V37.4C623.8,30.6,618,25.1,610.8,25.1z"/>
			<path id="XMLID_360_" class="st5" d="M612.9,55.7h-93.2c-1.3,0-2.4,1-2.4,2.3v160.2c0,1.3,1.1,2.3,2.4,2.3h93.2
				c1.3,0,2.4-1,2.4-2.3V58C615.3,56.7,614.3,55.7,612.9,55.7z"/>
			<path id="XMLID_359_" class="st10" d="M566.3,245.9c5.7,0,10.4-4.4,10.4-9.9c0-5.5-4.7-9.9-10.4-9.9c-5.7,0-10.4,4.4-10.4,9.9
				C555.9,241.4,560.6,245.9,566.3,245.9z"/>
			<path id="XMLID_356_" class="st12" d="M572.8,45.8c0.6,0,1.2-0.5,1.2-1.1c0-0.6-0.5-1.1-1.2-1.1h-19c-0.6,0-1.2,0.5-1.2,1.1
				c0,0.6,0.5,1.1,1.2,1.1H572.8L572.8,45.8z M578.9,45.8c0.6,0,1.2-0.5,1.2-1.1c0-0.6-0.5-1.1-1.2-1.1h-1.4c-0.6,0-1.2,0.5-1.2,1.1
				c0,0.6,0.5,1.1,1.2,1.1H578.9z"/>
		</g>
		<g id="XMLID_301_">
			<path id="XMLID_354_" class="st13" d="M519.9,92.6l4.1,6.1c0,0-0.7,4.9-1.6,11.4l-12.1-3.4c0.9-5.8,1.5-9.9,1.5-9.9L519.9,92.6z"
				/>
			<path id="XMLID_353_" class="st14" d="M528.8,95.2c2-2.3,4.6-3.3,5.5-3.6c1.3-0.4-1.2-4.7-5-1.6c0,0-2.2,0.7-2.7-0.1
				c-0.5-0.8,4.9-12.8,5.5-14.1c0.6-1.3-0.9-2.2-1.5-2.1c-0.6,0.1-1.4,2-2.7,4.4c-1.2,2.3-2.7,4.9-3,5.1c-0.3,0.1-0.9-0.2-0.7-1.7
				c0.2-1.5,1.3-9.9,0.9-10.6c-0.4-0.7-2-0.7-2.6,0.5c-0.6,1.2-1.4,9.7-1.9,10.8c-0.5,1.1-1.5,0.5-1.6-0.3c-0.1-0.8-0.6-10.2-1-10.8
				c-0.4-0.7-2-0.6-2.2,0.8c-0.3,1.4-0.2,10.4-0.6,10.9c-0.4,0.6-1.4,0.6-2.2-1c-0.8-1.6-2.1-5.1-2.5-5.4c-0.5-0.3-2,0.8-1.5,2.6
				c0.5,1.8,1.6,6.2,1.7,6.9c0.4,3.6-0.3,6.9,0.4,9.7c0.3,1,0.8,1.9,1.5,2.8c1.8,2,4.6,3.3,7.4,3.4C524.9,101.7,526,98.3,528.8,95.2
				z"/>
			<path id="XMLID_352_" class="st8" d="M511.2,100.9c0,0,5.3,3,12.1,2.7c0,0,0.6,0.7,0.6,1.2c0,0.5-0.4,2.3-0.4,2.3s2.3,2,1.8,5.4
				c-0.5,3.4-2.4,26.4-2.4,26.4s18.4-11.1,21.3-12.9c0,0,1.2-0.7,2.5-1.1l-0.3,7.7l-4.9,24.1l-24.2,4.3c0,0-11.6,1.7-12.4-9.6
				c-0.8-11.3,2.8-43.9,2.8-43.9s0.4-2.5,2.2-2.9l0.2-2.7C510.1,101.9,510.2,101,511.2,100.9z"/>
			<path id="XMLID_349_" class="st15" d="M523.7,129.3c-0.4,5.1-0.8,9.4-0.8,9.4l-8.2,4.6L523.7,129.3L523.7,129.3z M546.7,126.8
				l-0.2,5.6l-4.9,24.1l-10,1.8L546.7,126.8L546.7,126.8z"/>
			<path id="XMLID_348_" class="st8" d="M609.1,131.2c1.6,12.2-1.4,33.4-1.4,33.4l-7.9,16.9c0,0,7.7,35.4,7.3,38.9h-24.8
				c-6.3-2.9-14.4-5-24.6-5h-19.4c0,0-2.9-2-3.1-5.5c-0.2-3.5,6.3-23.8,6.5-27.5c0.6-14-1.4-30.2,1.3-43.6c0.2-0.9,0.4-1.8,0.7-2.7
				l3-11.3c0,0,6.9-2.3,11.8-3.4c3.3,1.6,5-0.4,10.1-1c4.9-0.1,10.5-0.2,17.7,0.6c0.1,0,8.2,1.4,16,5.7
				C604.6,127.8,607.1,129.5,609.1,131.2z"/>
			<polygon id="XMLID_347_" class="st16" points="586.8,126.3 596.4,140.9 569.1,179.9 561.5,180.7 550.3,143.9 556.9,136.2 			"/>
			<path id="XMLID_346_" class="st17" d="M554.1,122.5c1.5-0.4,3.1-0.8,4.4-1.2c3.3,1.6,5-0.4,10.1-1c4.9-0.1,10.5-0.2,17.7,0.6
				c0.1,0,3,0.5,7,1.8l3.2,9.2l-5.2,2.4l-16.7,7.3l-9.8-0.4l-14.4-5.2L554.1,122.5z"/>
			<path id="XMLID_345_" class="st18" d="M607.7,164.7l-7.8,16.9c0,0,7.7,35.4,7.3,38.9h-24.8c-4.1-1.8-8.9-3.4-14.5-4.2l-3.4-7.6
				l10.8-15c0,0,22-11.4,22.9-12.8c1-1.4,0.7-3.4,0.7-3.4l-0.2-29.9L607.7,164.7z"/>
			<polygon id="XMLID_344_" class="st19" points="569.4,122.3 561.1,126.4 565.5,177.1 580,138.7 584.7,125.5 			"/>
			<path id="XMLID_343_" class="st13" d="M572.6,98.8L572.6,98.8c-5.3,0-9.6,4.5-9.6,10.1v13.3c0,5.5,4.3,10.1,9.6,10.1l0,0
				c5.3,0,9.6-4.5,9.6-10.1v-13.3C582.2,103.4,577.9,98.8,572.6,98.8z"/>
			<path id="XMLID_342_" class="st8" d="M602.3,126.6c0,0,11.6,6,15,13.9c3.5,7.9,3.1,31.6,2.9,42.9c0,0-0.3,6.9-5.9,12.8
				c-5.6,5.8-26.7,23.2-26.7,23.2l-12.2-1.4l-2-11.4l29.8-24.6l-4.7-34.4C598.6,147.5,597.2,132.8,602.3,126.6z"/>
			<g id="XMLID_332_">
				<path id="XMLID_341_" class="st20" d="M515.8,220.4h73.4c1.4,0,2.5-1.1,2.5-2.4v0c0-1.3-1.1-2.4-2.5-2.4h-73.4
					c-1.4,0-2.5,1.1-2.5,2.4v0C513.3,219.3,514.4,220.4,515.8,220.4z"/>
				<path id="XMLID_340_" class="st21" d="M515.8,220.4h73.4c0.9,0,1.7-0.4,2.1-1.1c-0.4-0.7-1.2-1.1-2.1-1.1h-73.4
					c-0.9,0-1.7,0.4-2.1,1.1C514.1,219.9,514.9,220.4,515.8,220.4z"/>
				<path id="XMLID_339_" class="st21" d="M513.9,215.6h62.8c1.8,0,3.1-1.4,2.9-3.1l-5-38.7c-0.2-1.7-1.9-3.1-3.7-3.1H508
					c-1.8,0-3.1,1.4-2.9,3.1l5,38.7C510.4,214.3,512.1,215.6,513.9,215.6z"/>
				<path id="XMLID_338_" class="st20" d="M513.9,215.6h61c1.8,0,3.1-1.4,2.9-3.1l-5-38.7c-0.2-1.7-1.9-3.1-3.7-3.1h-61
					c-1.8,0-3.1,1.4-2.9,3.1l5,38.7C510.4,214.3,512.1,215.6,513.9,215.6z"/>
				<path id="XMLID_335_" class="st22" d="M561.9,212.5h-5.4l-42.6-34l0.3-2c0.1-0.6,0.3-1.1,0.7-1.6L561.9,212.5L561.9,212.5z
					 M521,173.9l46.5,37.1c0.2-0.3,0.4-0.7,0.4-1.1l0.7-5.2L530,173.9H521z"/>
				<path id="XMLID_334_" class="st20" d="M580.1,220.4h9.1c1.4,0,2.5-1.1,2.5-2.4v0c0-1.3-1.1-2.4-2.5-2.4h-9.1
					c-1.4,0-2.5,1.1-2.5,2.4v0C577.6,219.3,578.7,220.4,580.1,220.4z"/>
				<path id="XMLID_333_" class="st22" d="M514.5,216.8h65.4c0.7,0,1.2-0.5,1.2-1.2v0c0-0.7-0.6-1.2-1.2-1.2h-65.4
					c-0.7,0-1.2,0.5-1.2,1.2v0C513.3,216.3,513.9,216.8,514.5,216.8z"/>
			</g>
			<polygon id="XMLID_331_" class="st23" points="582.2,120.6 570.5,132 580,138.7 586.3,120.9 582.2,117.6 			"/>
			<polygon id="XMLID_330_" class="st23" points="563,120.6 570.5,132 561.9,135.5 558.5,121.4 563,118.2 			"/>
			<path id="XMLID_329_" class="st21" d="M551.4,152.8c1.1,0,2-0.8,2-1.9c0-1-0.9-1.9-2-1.9c-1.1,0-2,0.8-2,1.9
				C549.4,152,550.3,152.8,551.4,152.8z"/>
			<g id="XMLID_324_">
				<ellipse id="XMLID_328_" class="st21" cx="581.6" cy="160.9" rx="1.5" ry="1.5"/>
				<ellipse id="XMLID_327_" class="st21" cx="597.9" cy="160.9" rx="1.5" ry="1.5"/>
				<path id="XMLID_326_" class="st21" d="M598.3,160.6c0,0.2-0.2,0.3-0.4,0.3c-0.2,0-0.4-0.2-0.4-0.3v-15.8c0-2-0.9-3.9-2.3-5.2
					c-1.4-1.3-3.4-2.2-5.5-2.2c-2.2,0-4.1,0.8-5.5,2.2c-1.4,1.3-2.3,3.2-2.3,5.2v15.8c0,0.2-0.2,0.3-0.4,0.3c-0.2,0-0.4-0.2-0.4-0.3
					v-15.8c0-2.2,1-4.3,2.5-5.7c1.5-1.5,3.7-2.4,6-2.4c2.4,0,4.5,0.9,6,2.4c1.5,1.5,2.5,3.5,2.5,5.7V160.6z"/>
				<path id="XMLID_325_" class="st21" d="M599,144.8c0,0.6-0.5,1-1.1,1c-0.6,0-1.1-0.5-1.1-1c0-1.9-0.8-3.5-2.1-4.8
					c-1.3-1.2-3.1-2-5-2c-2,0-3.7,0.8-5,2c-1.3,1.2-2.1,2.9-2.1,4.8c0,0.6-0.5,1-1.1,1c-0.6,0-1.1-0.5-1.1-1c0-2.4,1-4.6,2.7-6.2
					c1.7-1.6,4-2.6,6.5-2.6c2.6,0,4.9,1,6.5,2.6C598,140.2,599,142.4,599,144.8z"/>
			</g>
			<path id="XMLID_323_" class="st21" d="M563,118.3h-0.2c-3,0-5.8,1.2-7.8,3.1c-2,1.9-3.2,4.5-3.2,7.4v21.9c0,0.2-0.2,0.3-0.4,0.3
				c-0.2,0-0.4-0.2-0.4-0.3v-21.9c0-3.1,1.3-5.9,3.4-7.9c2.1-2,5.1-3.3,8.3-3.3h0.2V118.3z"/>
			<path id="XMLID_322_" class="st21" d="M582.2,117.6h0.7c2,0,3.8,0.8,5.1,2c1.3,1.2,2.1,2.9,2.1,4.8v13.1c0,0.2-0.2,0.3-0.4,0.3
				c-0.2,0-0.4-0.2-0.4-0.3v-13.1c0-1.7-0.7-3.2-1.9-4.3c-1.2-1.1-2.8-1.8-4.5-1.8h-0.7V117.6z"/>
			<g id="XMLID_319_">
				<path id="XMLID_321_" class="st13" d="M552.7,95.5c-0.1,0-0.3,0-0.4,0.1l0,0h0c-2.3,0.6-3.9,2.6-3.9,4.9
					c0.1,2.7,2.5,4.8,5.3,4.8c2.8-0.1,5.1-2.3,5-5c0-1.6-0.9-3-2.1-3.8c0.2,1.4,0,3.2-1.9,3.5l-0.1-2.8
					C554.6,95.9,553.5,95.5,552.7,95.5z"/>
				<path id="XMLID_320_" class="st13" d="M589.9,93.9c0.1,0,0.3,0,0.4,0l0,0v0c2.3,0.4,4.2,2.2,4.3,4.5c0.2,2.7-2,5-4.8,5.2
					c-2.8,0.2-5.3-1.9-5.5-4.6c-0.1-1.6,0.6-3,1.7-4c-0.1,1.5,0.3,3.2,2.2,3.3l-0.2-2.8C588,94.5,589.1,93.9,589.9,93.9z"/>
			</g>
			<path id="XMLID_318_" class="st14" d="M570.1,70.2L570.1,70.2c-9.7,0.4-17.3,8.3-16.8,17.6l0.8,15.3c0.5,9.2,8.8,16.4,18.5,16
				l0,0c9.7-0.4,17.3-8.3,16.8-17.6l-0.8-15.3C588.1,77,579.8,69.8,570.1,70.2z"/>
			<g id="XMLID_314_">
				<path id="XMLID_317_" class="st21" d="M567.2,107.6c0.1,2.4,2.2,4.3,4.8,4.2c2.5-0.1,4.5-2.1,4.4-4.5l0,0c0-0.4-0.4-0.7-0.8-0.7
					l-7.5,0.3C567.5,106.8,567.2,107.1,567.2,107.6L567.2,107.6z"/>
				<path id="XMLID_316_" class="st24" d="M569.1,110.9c0.8,0.6,1.8,0.9,2.9,0.8c0.9,0,1.7-0.3,2.4-0.8c-0.4-0.9-1.4-1.5-2.7-1.5
					C570.5,109.5,569.5,110,569.1,110.9z"/>
				<path id="XMLID_315_" class="st8" d="M575.6,106.5l-7.1,0.3c-0.1,0.8,0.3,1.5,0.9,1.6c0.7,0.2,5.8-0.2,6.1-0.6
					C575.7,107.6,575.7,107,575.6,106.5z"/>
			</g>
			<path id="XMLID_313_" class="st21" d="M560.4,95.4c-0.3,0.2-0.7,0.1-0.9-0.2c-0.2-0.3-0.1-0.7,0.2-0.8c1.6-0.9,3.8-1.1,5.5-0.2
				c0.3,0.2,0.4,0.5,0.3,0.8c-0.2,0.3-0.5,0.4-0.9,0.2C563.3,94.5,561.7,94.7,560.4,95.4z"/>
			<path id="XMLID_312_" class="st21" d="M582.9,94.4c-1.4-0.5-3-0.6-4.3,0.2c-0.3,0.2-0.7,0.1-0.9-0.2c-0.2-0.3-0.1-0.6,0.2-0.8
				c1.6-1,3.8-1,5.5-0.3c0.3,0.1,0.5,0.5,0.3,0.8C583.6,94.4,583.2,94.5,582.9,94.4z"/>
			<path id="XMLID_311_" class="st21" d="M581,96.5L581,96.5c1.2,0,2.2,0.8,2.3,2l0,0.1c0.1,1.1-0.9,2.2-2.1,2.2h0
				c-1.2,0-2.2-0.8-2.3-2l0-0.1C578.9,97.5,579.8,96.5,581,96.5z"/>
			<path id="XMLID_310_" class="st21" d="M562.3,97.3L562.3,97.3c-1.2,0-2.1,1-2.1,2.2l0,0.1c0.1,1.1,1.1,2,2.3,2l0,0
				c1.2,0,2.1-1,2.1-2.2l0-0.1C564.6,98.2,563.5,97.3,562.3,97.3z"/>
			<path id="XMLID_309_" class="st21" d="M563.5,82.8c-1.9,0.1-5.5,1.1-5.4,4.7c0.2,3.6-0.4,6.5-2.8,6.6c0,0,0.1,1.2,0.1,2.8
				c0.1,1.6,0,3.2-1.6,3.3c-0.2-3.4-1.3-4.7-1.3-4.7s-0.2-4.6-0.4-8.5c-0.2-4,0.7-9.4,6-13.3c6.9-5.1,16.8-5.5,24.1-1.1
				c5.7,3.4,7.1,8.7,7.3,12.7c0.2,4,0.4,8.5,0.4,8.5s-1,1.4-0.9,4.8c-1.6,0.1-1.8-1.5-1.9-3.1c-0.1-1.6-0.1-2.8-0.1-2.8
				c-2.4,0.1-3.3-2.7-3.5-6.3c-0.2-3.6-3.9-4.3-5.8-4.2C573.1,82.4,568.3,82.6,563.5,82.8z"/>
			<path id="XMLID_306_" class="st21" d="M559.7,84.1c-0.9,0.7-1.6,1.8-1.6,3.4c0.2,3.6-0.4,6.5-2.8,6.6l0,0.3l0,0.5l0.1,1.2
				c0,0.7-0.6,1.4-1.3,1.4l0,0c-0.8,0-1.4-0.5-1.5-1.3l-0.1-1.7l0-0.1l-0.4-7.5c0-1,0-2.1,0.1-3.2C555.4,82.1,559.7,84.1,559.7,84.1
				L559.7,84.1L559.7,84.1z M587.1,93L587.1,93l0.1,1.8c0,0.7,0.7,1.3,1.5,1.3l0,0c0.8,0,1.4-0.7,1.3-1.4l-0.1-1.2l0-0.5l-0.4-7.6
				c0-1-0.2-2.1-0.4-3.2l0,0c-3.3-1.4-7.3,1-7.4,1c1,0.6,1.8,1.7,1.9,3.3c0.2,3.6,1,6.4,3.5,6.3L587.1,93z"/>
			<path id="XMLID_305_" class="st25" d="M570.7,101.4c0,0-0.9,2-0.9,2.7c-0.1,0.6,0.6,0.9,1.9,0.7
				C572.9,104.5,571.6,100.2,570.7,101.4z"/>
			<path id="XMLID_304_" class="st21" d="M566.6,78.5l2.2,4.1c0,0-8.5,5.7-15.3,1.6c-6.8-4-4.7-13-0.4-16.3
				c4.3-3.2,10.3-1.7,12.5,1.2c0,0,11.4-1.6,15.3-1c3.9,0.6,6.3,3.4,6.7,8.2c0,0,3.1,1.3,3.4,6.2C591.2,87.5,590,94,590,94l-3.6-7.9
				C586.4,86.1,587.6,73.8,566.6,78.5z"/>
			<path id="XMLID_303_" class="st15" d="M541.6,156.9l-24.2,4.3c0,0-12,1.8-12.8-9.9c-0.8-11.3,2.8-43.9,2.8-44l0,0
				c0,0,0.4-2.5,2.2-3.1l0.2-2.4c0-0.1,0.1-1.1,1.4-1.3l0.1,0.7c-0.7,0.1-0.7,0.6-0.7,0.6c0,0.9-0.2,2-0.2,2.9l-0.3,0.1
				c-1.6,0.3-1.9,2.6-1.9,2.6c-0.1,0.7-3.6,32.7-2.8,43.8c0.7,10.9,11.9,9.3,12,9.3l24.2-4.3L541.6,156.9z"/>
			<path id="XMLID_302_" class="st15" d="M617,140.6c-0.1-0.2,0-0.4,0.2-0.4c0.2-0.1,0.4,0,0.5,0.2c3.4,7.7,3.1,30.3,3,42l0,1.1
				c0,0-0.3,7-6,13c-2.1,2.2-6.2,5.8-10.6,9.7c-4.4,3.8-9.1,7.7-12.3,10.4c-0.1,0.1-0.4,0.1-0.5,0c-0.1-0.1-0.1-0.4,0-0.5
				c3.2-2.6,7.8-6.5,12.3-10.4c4.4-3.8,8.5-7.5,10.6-9.6c5.5-5.7,5.8-12.5,5.8-12.5l0-1C620.1,170.7,620.3,148.2,617,140.6z"/>
		</g>
	</g>
	<path id="XMLID_299_" class="st4" d="M543.9,57.8h66.5c1.3,0,2.4,1,2.4,2.3v74.1c0.9,0.9,1.8,1.9,2.6,2.9V58c0-1.3-1.1-2.3-2.4-2.3
		h-69.1h-24.1c-1.3,0-2.3,1-2.4,2.2H543.9z"/>
	<g id="XMLID_294_">
		<polygon id="XMLID_298_" class="st26" points="348.8,113.4 348.8,82.9 322.1,67.6 295.3,82.9 295.3,113.4 322.1,128.7 		"/>
		<g id="XMLID_295_">
			<path id="XMLID_297_" class="st27" d="M322.1,87.4c-14.8-14.6-37.4,10.9,0,29.9C359.4,98.2,336.8,72.7,322.1,87.4z"/>
			<polyline id="XMLID_296_" class="st28" points="306.9,99.1 312.2,99.1 313.8,95.4 318,106.5 324.7,90.3 328.5,103 330.8,98.7 
				336.6,98.7 			"/>
		</g>
	</g>
	<g id="XMLID_289_">
		<polygon id="XMLID_293_" class="st29" points="63.2,211.6 90.2,225.9 116.2,209.5 115.3,178.7 88.3,164.4 62.3,180.8 		"/>
		<g id="XMLID_290_">
			<path id="XMLID_292_" class="st30" d="M107,186.8L89.7,176l-17.8,10c0,0-2.5,24.5,16.9,28.4C108.3,211.4,107,186.8,107,186.8z"/>
			<polygon id="XMLID_291_" class="st31" points="98.2,193.3 90.9,193.4 90.9,186.3 87.4,186.4 87.5,193.5 80.3,193.6 80.3,197 
				87.5,196.9 87.6,204.1 91.1,204 91,196.9 98.2,196.8 			"/>
		</g>
	</g>
	<g id="XMLID_278_">
		<polygon id="XMLID_288_" class="st32" points="180.7,81.3 180.7,111.8 207.4,127 234.1,111.8 234.1,81.3 207.4,66 		"/>
		<g id="XMLID_279_">
			<path id="XMLID_287_" class="st33" d="M209,103.7v1.7c0,4.3-3.5,7.8-7.9,7.8l0,0c-4.3,0-7.9-3.5-7.9-7.8V92.2"/>
			<ellipse id="XMLID_286_" class="st30" cx="193.3" cy="92.2" rx="2.5" ry="2.5"/>
			<ellipse id="XMLID_285_" class="st34" cx="193.3" cy="92.2" rx="1.3" ry="1.3"/>
			<path id="XMLID_284_" class="st33" d="M210.8,84.6h5.8c1.2,0,2.2,1,2.2,2.2c-0.1,3.8-0.9,11.6-5.7,15.6c-2.3,1.9-5.8,1.9-8.1,0
				c-4.8-3.9-5.6-11.8-5.7-15.6c0-1.2,0.9-2.2,2.2-2.2h5.8"/>
			<g id="XMLID_282_">
				<path id="XMLID_283_" class="st34" d="M209,104.7c-1.8,0-3.5-0.6-5-1.8c-1.8-1.6-3.2-3.8-4.2-6.5c-0.2-0.5,0.1-1.1,0.6-1.3
					c0.5-0.2,1.1,0.1,1.3,0.6c0.9,2.4,2.1,4.4,3.6,5.7c2.1,1.8,5.2,1.8,7.2,0c1.5-1.3,2.8-3.2,3.6-5.7c0.2-0.5,0.8-0.8,1.3-0.6
					c0.5,0.2,0.8,0.8,0.6,1.3c-1,2.8-2.4,5-4.2,6.5C212.5,104.1,210.8,104.7,209,104.7z"/>
			</g>
			<ellipse id="XMLID_281_" class="st30" cx="207" cy="84.6" rx="1.6" ry="1.6"/>
			<ellipse id="XMLID_280_" class="st30" cx="210.9" cy="84.6" rx="1.6" ry="1.6"/>
		</g>
	</g>
	<g id="XMLID_272_">
		<polygon id="XMLID_277_" class="st29" points="151.7,131.3 151.7,161.8 178.4,177 205.1,161.8 205.1,131.3 178.4,116 		"/>
		<g id="XMLID_273_">
			<path id="XMLID_276_" class="st30" d="M191.5,155.4l-8.5-10.8V133h1c0.6,0,1.1-0.5,1.1-1c0-0.6-0.5-1-1.1-1h-11.2
				c-0.6,0-1.1,0.5-1.1,1c0,0.6,0.5,1,1.1,1h1v11.6l-8.5,10.8c-1.8,2.3-0.1,5.6,2.8,5.6h20.7C191.6,161,193.3,157.7,191.5,155.4z"/>
			<g id="XMLID_274_">
				<path id="XMLID_275_" class="st0" d="M183.9,149.2h-11.1l-4.5,5.7c-1.4,1.7-0.1,4.2,2.1,4.2h15.8c2.2,0,3.5-2.5,2.1-4.2
					L183.9,149.2z"/>
			</g>
		</g>
	</g>
	<polygon id="XMLID_271_" class="st26" points="86.8,161.8 86.8,131.3 60.1,116 33.4,131.3 33.4,161.8 60.1,177 	"/>
	<g id="XMLID_268_">
		<polygon id="XMLID_270_" class="st32" points="92,34.1 92,64.6 118.7,79.9 145.4,64.6 145.4,34.1 118.7,18.9 		"/>
		<path id="XMLID_269_" class="st30" d="M121.5,55.4V31.1c0-1.5-1.2-2.7-2.8-2.7s-2.8,1.2-2.8,2.7v1.6h2.6v1h-2.6v1.8h2.6v1h-2.6
			v1.8h2.6v1h-2.6v1.8h2.6v1h-2.6v1.8h2.6v1h-2.6v1.8h2.6v1h-2.6V49h2.6v1h-2.6v1.8h2.6v1h-2.6v2.8c-2.8,1.1-4.7,3.8-4.7,6.9
			c0,4.1,3.4,7.4,7.5,7.4s7.5-3.3,7.5-7.4C126.2,59.2,124.2,56.5,121.5,55.4z"/>
	</g>
	<g id="XMLID_262_">
		<polygon id="XMLID_267_" class="st26" points="33.1,34.1 33.1,64.6 59.8,79.9 86.5,64.6 86.5,34.1 59.8,18.9 		"/>
		<polygon id="XMLID_266_" class="st27" points="44.5,38.6 44.5,63.8 51.1,63.8 51.1,58 68.6,58 68.6,63.8 75.2,63.8 75.2,38.6 		
			"/>
		<rect id="XMLID_265_" x="43.2" y="33.9" class="st27" width="33.3" height="6"/>
		<ellipse id="XMLID_264_" class="st0" cx="59.8" cy="47" rx="6.5" ry="6.4"/>
		<polygon id="XMLID_263_" class="st30" points="63.5,46.3 60.5,46.3 60.5,43.4 59.1,43.4 59.1,46.3 56.2,46.3 56.2,47.7 59.1,47.7 
			59.1,50.6 60.5,50.6 60.5,47.7 63.5,47.7 		"/>
	</g>
	<g id="XMLID_260_">
		<polygon id="XMLID_261_" class="st29" points="0,177 26.7,161.8 26.7,131.3 0,116 		"/>
	</g>
	<g id="XMLID_258_">
		<polygon id="XMLID_259_" class="st29" points="0,79.4 26.7,64.2 26.7,33.7 0,18.4 		"/>
	</g>
	<g id="XMLID_256_">
		<polygon id="XMLID_257_" class="st27" points="0,253.7 15.7,244.7 15.7,226.8 0,217.8 		"/>
	</g>
	<g id="XMLID_254_">
		<polygon id="XMLID_255_" class="st27" points="0,13.7 15.7,4.7 15.7,0 0,0 		"/>
	</g>
	<g id="XMLID_252_">
		<polygon id="XMLID_253_" class="st29" points="291.2,112.1 291.2,81.6 264.5,66.4 237.8,81.6 237.8,112.1 264.5,127.4 		"/>
	</g>
	<g id="XMLID_250_">
		<polygon id="XMLID_251_" class="st26" points="262.2,63.1 262.2,32.6 235.5,17.4 208.8,32.6 208.8,63.1 235.5,78.4 		"/>
	</g>
	<g id="XMLID_248_">
		<polygon id="XMLID_249_" class="st32" points="405.7,112.6 405.7,82.1 379,66.9 352.3,82.1 352.3,112.6 379,127.9 		"/>
	</g>
	<g id="XMLID_246_">
		<polygon id="XMLID_247_" class="st26" points="378.2,62.1 378.2,31.6 351.5,16.4 324.8,31.6 324.8,62.1 351.5,77.4 		"/>
	</g>
	<g id="XMLID_244_">
		<polygon id="XMLID_245_" class="st29" points="378.2,163.1 378.2,132.6 351.5,117.4 324.8,132.6 324.8,163.1 351.5,178.4 		"/>
	</g>
	<g id="XMLID_242_">
		<polygon id="XMLID_243_" class="st26" points="174.8,113.1 174.8,82.6 148.1,67.3 121.3,82.6 121.3,113.1 148.1,128.4 		"/>
	</g>
	<g id="XMLID_231_">
		<polygon id="XMLID_241_" class="st29" points="62.5,82.6 62.5,113.1 89.2,128.4 115.9,113.1 115.9,82.6 89.2,67.3 		"/>
		<g id="XMLID_232_">
			<rect id="XMLID_240_" x="75.9" y="82.7" class="st0" width="26.6" height="31.1"/>
			<rect id="XMLID_239_" x="79.2" y="86.6" class="st30" width="20" height="23.4"/>
			<line id="XMLID_238_" class="st35" x1="82.2" y1="91.5" x2="96.3" y2="91.5"/>
			<line id="XMLID_237_" class="st35" x1="82.2" y1="94.8" x2="96.3" y2="94.8"/>
			<line id="XMLID_236_" class="st35" x1="82.2" y1="98" x2="96.3" y2="98"/>
			<line id="XMLID_235_" class="st35" x1="82.2" y1="101.3" x2="96.3" y2="101.3"/>
			<line id="XMLID_234_" class="st35" x1="82.2" y1="104.6" x2="96.3" y2="104.6"/>
			<path id="XMLID_233_" class="st0" d="M91.5,80.6c0.1-0.2,0.1-0.5,0.1-0.8c0-1.3-1.1-2.4-2.4-2.4c-1.3,0-2.4,1.1-2.4,2.4
				c0,0.3,0.1,0.5,0.1,0.8H81v3.2h16.4v-3.2H91.5z"/>
		</g>
	</g>
	<polygon id="XMLID_230_" class="st32" points="56.8,113.1 56.8,82.6 30.1,67.3 3.4,82.6 3.4,113.1 30.1,128.4 	"/>
	<g id="XMLID_224_">
		<polygon id="XMLID_229_" class="st26" points="261.2,162.1 261.2,131.6 234.5,116.4 207.8,131.6 207.8,162.1 234.5,177.4 		"/>
		<path id="XMLID_225_" class="st30" d="M392.7,87H388v-3.2c0-2.7-0.9-4.8-3.7-4.8h-12.1c-2.8,0-6.2,2-6.2,4.8V87h-2.2
			c-2.1,0-4.8,1.6-4.8,3.7v15.4c0,2.1,2.8,3.9,4.8,3.9h28.9c2.1,0,2.3-1.9,2.3-3.9V90.7C395,88.6,394.8,87,392.7,87z M383,100h-5v5
			h-2v-5h-5v-2h5v-5h2v5h5V100z M386,87h-17v-3.2c0-1.4,1.8-1.8,3.2-1.8h12.1c1.4,0,1.7,0.4,1.7,1.8V87z"/>
	</g>
	<g id="XMLID_221_">
		<path id="XMLID_223_" class="st30" d="M21.3,108.7c2.4,1.9,5.4,3,8.7,3c7.7,0,14-6.2,14-13.8c0-3.3-1.2-6.3-3.1-8.6L21.3,108.7z"
			/>
		<path id="XMLID_222_" class="st30" d="M38.8,87.1c-2.4-1.9-5.4-3-8.7-3c-7.7,0-14,6.2-14,13.8c0,3.3,1.2,6.3,3.1,8.6L38.8,87.1z"
			/>
	</g>
	<g id="XMLID_184_">
		<polygon id="XMLID_220_" class="st0" points="56.8,210.4 56.8,179.9 30.1,164.6 3.4,179.9 3.4,210.4 30.1,225.7 		"/>
		<g id="XMLID_185_">
			<g id="XMLID_203_">
				<path id="XMLID_219_" class="st30" d="M16,199.3l18.2-18.1c2.7-2.7,7.2-2.7,9.9,0l0,0c2.7,2.7,2.7,7.1,0,9.8l-18.2,18.1
					c-2.7,2.7-7.2,2.7-9.9,0l0,0C13.3,206.4,13.3,202,16,199.3z"/>
				<polygon id="XMLID_218_" class="st36" points="20.4,194.9 29.8,185.6 39.7,195.4 30.3,204.7 				"/>
				<g id="XMLID_211_">
					<path id="XMLID_217_" class="st36" d="M25.4,205.5c-0.3-0.3-0.3-0.7,0-0.9c0.3-0.3,0.7-0.3,0.9,0c0.3,0.3,0.3,0.7,0,0.9
						C26,205.8,25.6,205.8,25.4,205.5z"/>
					<path id="XMLID_216_" class="st36" d="M22.5,202.7c-0.3-0.3-0.3-0.7,0-0.9c0.3-0.3,0.7-0.3,0.9,0c0.3,0.3,0.3,0.7,0,0.9
						C23.2,202.9,22.7,202.9,22.5,202.7z"/>
					<path id="XMLID_215_" class="st36" d="M18.5,206.6c-0.3-0.3-0.3-0.7,0-0.9c0.3-0.3,0.7-0.3,0.9,0c0.3,0.3,0.3,0.7,0,0.9
						C19.2,206.8,18.8,206.8,18.5,206.6z"/>
					<path id="XMLID_214_" class="st36" d="M19.6,199.8c-0.3-0.3-0.3-0.7,0-0.9c0.3-0.3,0.7-0.3,0.9,0c0.3,0.3,0.3,0.7,0,0.9
						C20.3,200.1,19.9,200.1,19.6,199.8z"/>
					<path id="XMLID_213_" class="st36" d="M21.8,206.2c-0.3-0.3-0.3-0.7,0-0.9c0.3-0.3,0.7-0.3,0.9,0c0.3,0.3,0.3,0.7,0,0.9
						C22.5,206.4,22,206.4,21.8,206.2z"/>
					<path id="XMLID_212_" class="st36" d="M18.9,203.3c-0.3-0.3-0.3-0.7,0-0.9c0.3-0.3,0.7-0.3,0.9,0c0.3,0.3,0.3,0.7,0,0.9
						C19.6,203.6,19.2,203.6,18.9,203.3z"/>
				</g>
				<g id="XMLID_204_">
					<path id="XMLID_210_" class="st36" d="M40.5,190.5c-0.3-0.3-0.7-0.3-0.9,0c-0.3,0.3-0.3,0.7,0,0.9c0.3,0.3,0.7,0.3,0.9,0
						C40.8,191.2,40.8,190.8,40.5,190.5z"/>
					<path id="XMLID_209_" class="st36" d="M37.7,187.6c-0.3-0.3-0.7-0.3-0.9,0c-0.3,0.3-0.3,0.7,0,0.9c0.3,0.3,0.7,0.3,0.9,0
						C37.9,188.3,37.9,187.9,37.7,187.6z"/>
					<path id="XMLID_208_" class="st36" d="M41.6,183.7c-0.3-0.3-0.7-0.3-0.9,0c-0.3,0.3-0.3,0.7,0,0.9c0.3,0.3,0.7,0.3,0.9,0
						C41.9,184.4,41.9,184,41.6,183.7z"/>
					<path id="XMLID_207_" class="st36" d="M34.8,184.8c-0.3-0.3-0.7-0.3-0.9,0c-0.3,0.3-0.3,0.7,0,0.9c0.3,0.3,0.7,0.3,0.9,0
						C35,185.5,35,185,34.8,184.8z"/>
					<path id="XMLID_206_" class="st36" d="M41.2,186.9c-0.3-0.3-0.7-0.3-0.9,0c-0.3,0.3-0.3,0.7,0,0.9c0.3,0.3,0.7,0.3,0.9,0
						C41.5,187.6,41.5,187.2,41.2,186.9z"/>
					<path id="XMLID_205_" class="st36" d="M38.3,184.1c-0.3-0.3-0.7-0.3-0.9,0c-0.3,0.3-0.3,0.7,0,0.9c0.3,0.3,0.7,0.3,0.9,0
						C38.6,184.8,38.6,184.3,38.3,184.1z"/>
				</g>
			</g>
			<g id="XMLID_186_">
				<path id="XMLID_202_" class="st30" d="M34.2,209.1L16,191c-2.7-2.7-2.7-7.1,0-9.8h0c2.7-2.7,7.2-2.7,9.9,0l18.2,18.1
					c2.7,2.7,2.7,7.1,0,9.8v0C41.4,211.8,37,211.8,34.2,209.1z"/>
				<polygon id="XMLID_201_" class="st34" points="29.8,204.7 20.4,195.4 30.3,185.6 39.7,194.9 				"/>
				<g id="XMLID_194_">
					<path id="XMLID_200_" class="st36" d="M40.5,199.8c-0.3,0.3-0.7,0.3-0.9,0c-0.3-0.3-0.3-0.7,0-0.9c0.3-0.3,0.7-0.3,0.9,0
						C40.8,199.1,40.8,199.5,40.5,199.8z"/>
					<path id="XMLID_199_" class="st36" d="M37.7,202.7c-0.3,0.3-0.7,0.3-0.9,0c-0.3-0.3-0.3-0.7,0-0.9c0.3-0.3,0.7-0.3,0.9,0
						C37.9,202,37.9,202.4,37.7,202.7z"/>
					<path id="XMLID_198_" class="st36" d="M41.6,206.6c-0.3,0.3-0.7,0.3-0.9,0c-0.3-0.3-0.3-0.7,0-0.9c0.3-0.3,0.7-0.3,0.9,0
						C41.9,205.9,41.9,206.3,41.6,206.6z"/>
					<path id="XMLID_197_" class="st36" d="M34.8,205.5c-0.3,0.3-0.7,0.3-0.9,0c-0.3-0.3-0.3-0.7,0-0.9c0.3-0.3,0.7-0.3,0.9,0
						C35,204.8,35,205.3,34.8,205.5z"/>
					<path id="XMLID_196_" class="st36" d="M41.2,203.4c-0.3,0.3-0.7,0.3-0.9,0c-0.3-0.3-0.3-0.7,0-0.9c0.3-0.3,0.7-0.3,0.9,0
						C41.5,202.7,41.5,203.1,41.2,203.4z"/>
					<path id="XMLID_195_" class="st36" d="M38.3,206.2c-0.3,0.3-0.7,0.3-0.9,0c-0.3-0.3-0.3-0.7,0-0.9c0.3-0.3,0.7-0.3,0.9,0
						C38.6,205.5,38.6,205.9,38.3,206.2z"/>
				</g>
				<g id="XMLID_187_">
					<path id="XMLID_193_" class="st36" d="M25.4,184.8c-0.3,0.3-0.3,0.7,0,0.9c0.3,0.3,0.7,0.3,0.9,0c0.3-0.3,0.3-0.7,0-0.9
						C26,184.5,25.6,184.5,25.4,184.8z"/>
					<path id="XMLID_192_" class="st36" d="M22.5,187.6c-0.3,0.3-0.3,0.7,0,0.9c0.3,0.3,0.7,0.3,0.9,0c0.3-0.3,0.3-0.7,0-0.9
						C23.2,187.4,22.7,187.4,22.5,187.6z"/>
					<path id="XMLID_191_" class="st36" d="M18.5,183.7c-0.3,0.3-0.3,0.7,0,0.9c0.3,0.3,0.7,0.3,0.9,0c0.3-0.3,0.3-0.7,0-0.9
						C19.2,183.5,18.8,183.5,18.5,183.7z"/>
					<path id="XMLID_190_" class="st36" d="M19.6,190.5c-0.3,0.3-0.3,0.7,0,0.9c0.3,0.3,0.7,0.3,0.9,0c0.3-0.3,0.3-0.7,0-0.9
						C20.3,190.2,19.9,190.2,19.6,190.5z"/>
					<path id="XMLID_189_" class="st36" d="M21.8,184.1c-0.3,0.3-0.3,0.7,0,0.9c0.3,0.3,0.7,0.3,0.9,0c0.3-0.3,0.3-0.7,0-0.9
						C22.5,183.9,22,183.9,21.8,184.1z"/>
					<path id="XMLID_188_" class="st36" d="M18.9,187c-0.3,0.3-0.3,0.7,0,0.9c0.3,0.3,0.7,0.3,0.9,0c0.3-0.3,0.3-0.7,0-0.9
						C19.6,186.7,19.2,186.7,18.9,187z"/>
				</g>
			</g>
		</g>
	</g>
	<g id="XMLID_179_">
		<g id="XMLID_180_">
			<path id="XMLID_181_" class="st27" d="M235.5,128.8c-0.3-0.3-0.8-0.3-1.1,0c-0.5,0.6-12.6,15-12.6,21.8c0,7.1,5.9,12.8,13.1,12.8
				c7.2,0,13.1-5.8,13.1-12.8C248,143.7,236,129.4,235.5,128.8z M239.6,159.4c-0.1,0.1-0.2,0.1-0.3,0.1c-0.3,0-0.5-0.1-0.6-0.4
				c-0.2-0.4,0-0.8,0.3-1c2.9-1.5,4.7-4.4,4.7-7.5c0-0.4,0.3-0.7,0.7-0.7c0.4,0,0.7,0.3,0.7,0.7C245.1,154.3,243,157.7,239.6,159.4z
				"/>
		</g>
	</g>
	<g id="XMLID_166_">
		<g id="XMLID_167_">
			<path id="XMLID_168_" class="st30" d="M362.8,132.5h-3c-0.4,0-0.8,0.3-0.8,0.8h-1.5v-1.5c0-0.4-0.3-0.8-0.8-0.8h-1.6
				c-0.4-1.7-1.9-3-3.7-3s-3.3,1.3-3.7,3h-1.6c-0.4,0-0.8,0.3-0.8,0.8v1.5H344c0-0.4-0.3-0.8-0.8-0.8h-3c-1.2,0-2.3,1-2.3,2.3v27
				c0,1.2,1,2.3,2.3,2.3h22.5c1.2,0,2.3-1,2.3-2.3v-27C365,133.5,364,132.5,362.8,132.5z M351.5,129.5c1,0,1.8,0.6,2.1,1.5h-4.2
				C349.7,130.2,350.5,129.5,351.5,129.5z M347,132.5h9v3h-9V132.5z M360.5,158.8h-18c-0.4,0-0.8-0.3-0.8-0.8c0-0.4,0.3-0.8,0.8-0.8
				h18c0.4,0,0.8,0.3,0.8,0.8C361.3,158.5,360.9,158.8,360.5,158.8z M360.5,155.8h-18c-0.4,0-0.8-0.3-0.8-0.8c0-0.4,0.3-0.8,0.8-0.8
				h18c0.4,0,0.8,0.3,0.8,0.8C361.3,155.5,360.9,155.8,360.5,155.8z M360.5,152.8h-18c-0.4,0-0.8-0.3-0.8-0.8c0-0.4,0.3-0.8,0.8-0.8
				h18c0.4,0,0.8,0.3,0.8,0.8C361.3,152.5,360.9,152.8,360.5,152.8z M360.5,149.8h-18c-0.4,0-0.8-0.3-0.8-0.8c0-0.4,0.3-0.8,0.8-0.8
				h18c0.4,0,0.8,0.3,0.8,0.8C361.3,149.5,360.9,149.8,360.5,149.8z M360.5,146.8h-18c-0.4,0-0.8-0.3-0.8-0.8c0-0.4,0.3-0.8,0.8-0.8
				h18c0.4,0,0.8,0.3,0.8,0.8C361.3,146.5,360.9,146.8,360.5,146.8z M360.5,143.8h-18c-0.4,0-0.8-0.3-0.8-0.8c0-0.4,0.3-0.8,0.8-0.8
				h18c0.4,0,0.8,0.3,0.8,0.8C361.3,143.5,360.9,143.8,360.5,143.8z M360.5,140.8h-18c-0.4,0-0.8-0.3-0.8-0.8c0-0.4,0.3-0.8,0.8-0.8
				h18c0.4,0,0.8,0.3,0.8,0.8C361.3,140.5,360.9,140.8,360.5,140.8z"/>
		</g>
	</g>
	<g id="XMLID_132_">
		<g id="XMLID_157_">
			<g id="XMLID_158_">
				<g id="XMLID_159_">
					<g id="XMLID_160_">
						<g id="XMLID_161_">
							<g id="XMLID_162_">
								<path id="XMLID_163_" class="st30" d="M252.2,58.6h-30.6V41.7h30.6V58.6z M222.5,57.7h28.9V42.6h-28.9V57.7z"/>
							</g>
						</g>
					</g>
				</g>
			</g>
		</g>
		<g id="XMLID_148_">
			<g id="XMLID_149_">
				<g id="XMLID_150_">
					<g id="XMLID_151_">
						<g id="XMLID_152_">
							<g id="XMLID_153_">
								<path id="XMLID_154_" class="st30" d="M253,42.6h-32v-5.3h32V42.6z M221.8,41.7h30.3v-3.6h-30.3V41.7z"/>
							</g>
						</g>
					</g>
				</g>
			</g>
		</g>
		<g id="XMLID_141_">
			<g id="XMLID_142_">
				<g id="XMLID_143_">
					<g id="XMLID_144_">
						<g id="XMLID_145_">
							<g id="XMLID_146_">
								<path id="XMLID_147_" class="st30" d="M230.4,37.8l-0.8-0.3c0,0,1.5-4.5,7.4-4.5c5.9,0,7.2,4.5,7.2,4.6l-0.8,0.2
									c0-0.2-1.2-3.9-6.4-3.9C231.8,33.9,230.5,37.6,230.4,37.8z"/>
							</g>
						</g>
					</g>
				</g>
			</g>
		</g>
		<g id="XMLID_133_">
			<g id="XMLID_134_">
				<g id="XMLID_135_">
					<g id="XMLID_136_">
						<g id="XMLID_137_">
							<g id="XMLID_138_">
								<g id="XMLID_139_">
									<polygon id="XMLID_140_" class="st30" points="241.7,47.4 238.6,47.4 238.6,44.3 235.2,44.3 235.2,47.4 232.2,47.4 
										232.2,50.7 235.2,50.7 235.2,53.8 238.6,53.8 238.6,50.7 241.7,50.7 									"/>
								</g>
							</g>
						</g>
					</g>
				</g>
			</g>
		</g>
	</g>
	<g id="XMLID_83_">
		<g id="XMLID_124_">
			<g id="XMLID_125_">
				<g id="XMLID_126_">
					<g id="XMLID_127_">
						<g id="XMLID_128_">
							<g id="XMLID_129_">
								<g id="XMLID_130_">
									<path id="XMLID_131_" class="st30" d="M61.6,144.7c-3.8-1.2-5-5.6-5.3-6.5c-0.7-2.8,0.1-5.6,2.4-8.2
										c1.7-1.9,3.6-3.1,4.2-3.5l0.7,1.2c-0.5,0.3-2.3,1.4-3.8,3.2c-2,2.3-2.7,4.6-2.1,6.9c0.1,0.5,1.2,4.6,4.4,5.5
										c1.1,0.3,2.9,0.4,5.3-1.2c2.2-1.4,3.2-3.8,3.2-7.2c0-2.6-0.7-5-1-5.6l1.4-0.5c0.6,1.7,3.1,10.6-2.8,14.5
										c-2.8,1.8-5.1,1.7-6.4,1.3C61.6,144.7,61.6,144.7,61.6,144.7z"/>
								</g>
							</g>
						</g>
					</g>
				</g>
			</g>
		</g>
		<g id="XMLID_116_">
			<g id="XMLID_117_">
				<g id="XMLID_118_">
					<g id="XMLID_119_">
						<g id="XMLID_120_">
							<g id="XMLID_121_">
								<g id="XMLID_122_">
									<path id="XMLID_123_" class="st30" d="M52,161.2c-2.2-0.7-4.3-3.2-4.7-5.8c-0.5-3.5,2-7.2,5.9-8.8l0.5,1.3
										c-3.3,1.3-5.4,4.3-5,7.2c0.4,2.4,2.6,4.8,4.5,4.8c3.3-0.1,6.3-8.2,7.9-16.1l1.4,0.3c-0.8,4-3.8,17.1-9.3,17.2
										C52.8,161.4,52.4,161.3,52,161.2z"/>
								</g>
							</g>
						</g>
					</g>
				</g>
			</g>
		</g>
		<g id="XMLID_108_">
			<g id="XMLID_109_">
				<g id="XMLID_110_">
					<g id="XMLID_111_">
						<g id="XMLID_112_">
							<g id="XMLID_113_">
								<g id="XMLID_114_">
									<circle id="XMLID_115_" class="st30" cx="54.2" cy="146.9" r="2.7"/>
								</g>
							</g>
						</g>
					</g>
				</g>
			</g>
		</g>
		<g id="XMLID_100_">
			<g id="XMLID_101_">
				<g id="XMLID_102_">
					<g id="XMLID_103_">
						<g id="XMLID_104_">
							<g id="XMLID_105_">
								<g id="XMLID_106_">
									<circle id="XMLID_107_" class="st30" cx="63.4" cy="126.9" r="1.6"/>
								</g>
							</g>
						</g>
					</g>
				</g>
			</g>
		</g>
		<g id="XMLID_92_">
			<g id="XMLID_93_">
				<g id="XMLID_94_">
					<g id="XMLID_95_">
						<g id="XMLID_96_">
							<g id="XMLID_97_">
								<g id="XMLID_98_">
									<circle id="XMLID_99_" class="st30" cx="70.1" cy="129.1" r="1.6"/>
								</g>
							</g>
						</g>
					</g>
				</g>
			</g>
		</g>
		<g id="XMLID_84_">
			<g id="XMLID_85_">
				<g id="XMLID_86_">
					<g id="XMLID_87_">
						<g id="XMLID_88_">
							<g id="XMLID_89_">
								<g id="XMLID_90_">
									<path id="XMLID_91_" class="st30" d="M62.3,142c-3.9-1.2-5.4-4.6-5.7-5.3l0.3-0.1c0.3,0.7,1.9,4.2,5.9,5.2
										c3.1,0.8,5.7-0.4,6.7-1l0.2,0.3c-1,0.6-3.7,1.9-6.9,1C62.6,142.1,62.5,142.1,62.3,142z"/>
								</g>
							</g>
						</g>
					</g>
				</g>
			</g>
		</g>
	</g>
	<g id="XMLID_81_">
		<polygon id="XMLID_82_" class="st0" points="147,162.4 147,131.9 120.3,116.6 93.6,131.9 93.6,162.4 120.3,177.6 		"/>
	</g>
	<g id="XMLID_79_">
		<polygon id="XMLID_80_" class="st0" points="202.7,64.6 202.7,34.1 176,18.9 149.3,34.1 149.3,64.6 176,79.9 		"/>
	</g>
	<g id="XMLID_68_">
		<g id="XMLID_75_">
			<path id="XMLID_76_" class="st37" d="M352.8,41.4c-3.8,0-6.9,3.1-6.9,6.9c0,3.8,3.1,6.9,6.9,6.9c3.8,0,6.9-3.1,6.9-6.9
				C359.6,44.5,356.6,41.4,352.8,41.4z M358.5,48.3c0,0.6-0.5,1.1-1.1,1.1h-3.4v3.4c0,0.6-0.5,1.1-1.1,1.1s-1.1-0.5-1.1-1.1v-3.4
				h-3.4c-0.6,0-1.1-0.5-1.1-1.1c0-0.6,0.5-1.1,1.1-1.1h3.4v-3.4c0-0.6,0.5-1.1,1.1-1.1s1.1,0.5,1.1,1.1v3.4h3.4
				C358,47.1,358.5,47.6,358.5,48.3z"/>
		</g>
		<g id="XMLID_69_">
			<path id="XMLID_70_" class="st30" d="M367,41.8c-1.2,0-2.3,0.5-3.2,1.2v-4.4c0-0.2-0.1-0.4-0.3-0.6c-0.2-0.1-0.4-0.2-0.6-0.2
				l-10.2,0.8l-10.2-0.8c-0.2,0-0.4,0.1-0.6,0.2c-0.2,0.1-0.3,0.4-0.3,0.6V43c-0.8-0.8-1.9-1.2-3.2-1.2c-2.6,0-4.7,2.1-4.7,4.7
				c0,2.6,2.1,4.7,4.7,4.7c1.2,0,2.3-0.5,3.2-1.2v4.4c0,0.4,0.3,0.7,0.6,0.8l10.3,2.4c0.1,0,0.1,0,0.2,0c0.1,0,0.1,0,0.2,0l10.3-2.4
				c0.4-0.1,0.6-0.4,0.6-0.8V50c0.8,0.8,1.9,1.2,3.2,1.2c2.6,0,4.7-2.1,4.7-4.7C371.7,43.9,369.6,41.8,367,41.8z M338.6,49.7
				c-1.7,0-3.2-1.4-3.2-3.2c0-1.7,1.4-3.2,3.2-3.2c1.7,0,3.2,1.4,3.2,3.2C341.7,48.3,340.3,49.7,338.6,49.7z M353.1,55.1
				c-3.7,0-6.6-3-6.6-6.6c0-3.7,3-6.6,6.6-6.6s6.6,3,6.6,6.6C359.8,54.8,351.4,55.1,353.1,55.1z M367,49.7c-1.7,0-3.2-1.4-3.2-3.2
				c0-1.7,1.4-3.2,3.2-3.2s3.2,1.4,3.2,3.2C370.1,48.3,368.7,49.7,367,49.7z"/>
		</g>
	</g>
	<g id="XMLID_58_">
		<rect id="XMLID_67_" x="259.8" y="86.6" class="st30" width="8.1" height="18.6"/>
		<rect id="XMLID_66_" x="259.8" y="86.6" class="st30" width="8.1" height="1.4"/>
		<rect id="XMLID_65_" x="261.4" y="77.6" class="st30" width="4.9" height="9.1"/>
		<rect id="XMLID_64_" x="261.4" y="77.6" class="st38" width="4.9" height="1.7"/>
		<rect id="XMLID_63_" x="259.2" y="85.9" class="st39" width="9.4" height="1.5"/>
		<rect id="XMLID_62_" x="258.6" y="76.8" class="st30" width="10.5" height="1.5"/>
		<rect id="XMLID_61_" x="259.8" y="103.7" class="st30" width="8.1" height="1.5"/>
		<g id="XMLID_59_">
			<rect id="XMLID_60_" x="263.6" y="104.5" class="st30" width="0.6" height="13.1"/>
		</g>
	</g>
	<g id="XMLID_50_">
		<g id="XMLID_53_">
			<path id="XMLID_54_" class="st30" d="M137.8,139.1l-6.7-5.8c-0.3-0.2-0.7-0.2-0.9,0.1c-0.2,0.3-0.2,0.7,0.1,0.9l1.9,1.7l-1.9,2.2
				c-0.5-0.1-1-0.2-1.5-0.1c-1.2,0.1-2.3,0.6-3,1.5l-1.7,1.9l0,0l0,0l-1.7,1.9c0,0,0,0,0,0l0,0l-3.3,3.8l0,0c0,0,0,0,0,0l-0.4,0.5
				c-1.5,1.7-1.4,4.2,0,5.8l-3.7,4.3c-0.2,0.3-0.2,0.7,0.1,0.9c0.1,0.1,0.3,0.2,0.4,0.2c0.2,0,0.4-0.1,0.5-0.2l3.8-4.3
				c0.7,0.5,1.5,0.7,2.4,0.7c0.1,0,0.2,0,0.3,0c1.2-0.1,2.3-0.6,3-1.5l7-8.1c0.8-0.9,1.1-2,1.1-3.2c0-0.5-0.2-1-0.4-1.5l1.9-2.2
				l1.9,1.7c0.1,0.1,0.3,0.2,0.4,0.2c0.2,0,0.4-0.1,0.5-0.2C138.1,139.7,138,139.3,137.8,139.1z M131.4,144.5l-7,8.1
				c-0.6,0.6-1.3,1-2.2,1.1c-0.8,0.1-1.7-0.2-2.3-0.8c-1.3-1.1-1.5-3.1-0.3-4.5l0,0l1,0.8c0.1,0.1,0.3,0.2,0.4,0.2
				c0.2,0,0.4-0.1,0.5-0.2c0.2-0.3,0.2-0.7-0.1-0.9l-1-0.8l0.8-1l1,0.8c0.1,0.1,0.3,0.2,0.4,0.2c0.2,0,0.4-0.1,0.5-0.2
				c0.2-0.3,0.2-0.7-0.1-0.9l-1-0.8l0.8-1l1,0.8c0.1,0.1,0.3,0.2,0.4,0.2c0.2,0,0.4-0.1,0.5-0.2c0.2-0.3,0.2-0.7-0.1-0.9l-1-0.8
				l0.8-1l1,0.8c0.1,0.1,0.3,0.2,0.4,0.2c0.2,0,0.4-0.1,0.5-0.2c0.2-0.3,0.2-0.7-0.1-0.9l-1-0.8l0.8-1l1,0.8
				c0.1,0.1,0.3,0.2,0.4,0.2c0.2,0,0.4-0.1,0.5-0.2c0.2-0.3,0.2-0.7-0.1-0.9l-0.9-0.8c0.5-0.4,1.1-0.6,1.7-0.7c0.1,0,0.2,0,0.2,0
				c0.8,0,1.5,0.3,2.1,0.8h0l0,0c0.6,0.6,1,1.3,1.1,2.2C132.3,143,132,143.9,131.4,144.5z M132.4,139.5l-1-0.8l1.7-1.9l1,0.8
				L132.4,139.5z"/>
		</g>
		<g id="XMLID_51_">
			<path id="XMLID_52_" class="st30" d="M122.4,155.6c-0.1,0-0.3,0-0.4,0c-0.8,0-1.5-0.2-2.2-0.5l-3.4,4c-0.3,0.3-0.6,0.4-1,0.4
				c-0.3,0-0.6-0.1-0.8-0.3c-0.5-0.5-0.6-1.3-0.1-1.8l3.4-4c-1.3-1.8-1.2-4.4,0.3-6.2l7-8.1c-0.3-0.9-1.2-1.5-2.2-1.5h-3.3v-3.2h1.6
				c0.5,0,0.9-0.4,0.9-0.9c0-0.5-0.4-0.9-0.9-0.9H113c-0.5,0-0.9,0.4-0.9,0.9c0,0.5,0.4,0.9,0.9,0.9h1.6v3.2h-4
				c-1.3,0-2.4,1.1-2.4,2.4v0.8h3.2c0.3,0,0.6,0.3,0.6,0.6c0,0.3-0.3,0.6-0.6,0.6h-3.2v2.5h3.2c0.3,0,0.6,0.3,0.6,0.6
				c0,0.3-0.3,0.6-0.6,0.6h-3.2v2.5h3.2c0.3,0,0.6,0.3,0.6,0.6c0,0.3-0.3,0.6-0.6,0.6h-3.2v2.5h3.2c0.3,0,0.6,0.3,0.6,0.6
				s-0.3,0.6-0.6,0.6h-3.2v2.5h3.2c0.3,0,0.6,0.3,0.6,0.6s-0.3,0.6-0.6,0.6h-3.2v2.2c0,0.9,0.7,1.5,1.5,1.5h14
				c0.9,0,1.5-0.7,1.5-1.5v-5.1C124.5,155.1,123.5,155.5,122.4,155.6z"/>
		</g>
	</g>
	<g id="XMLID_39_">
		<g id="XMLID_40_">
			<path id="XMLID_41_" class="st30" d="M164.9,40.8c-5.1,0-9.2,4.1-9.2,9.2s4.1,9.2,9.2,9.2h10V40.8H164.9z M164.9,45.8
				c-2.3,0-4.2,1.9-4.2,4.2c0,0.5-0.4,0.8-0.8,0.8S159,50.4,159,50c0-3.2,2.6-5.9,5.9-5.9c0.5,0,0.8,0.4,0.8,0.8
				C165.7,45.4,165.3,45.8,164.9,45.8z M172.4,45.8h-5c-0.5,0-0.8-0.4-0.8-0.8c0-0.5,0.4-0.8,0.8-0.8h5c0.5,0,0.8,0.4,0.8,0.8
				C173.2,45.4,172.9,45.8,172.4,45.8z M186.6,40.8h-10v18.4h10c5.1,0,9.2-4.1,9.2-9.2S191.7,40.8,186.6,40.8z M184.1,55.8h-5
				c-0.5,0-0.8-0.4-0.8-0.8s0.4-0.8,0.8-0.8h5c0.5,0,0.8,0.4,0.8,0.8S184.6,55.8,184.1,55.8z M186.6,55.8c-0.5,0-0.8-0.4-0.8-0.8
				s0.4-0.8,0.8-0.8c2.3,0,4.2-1.9,4.2-4.2c0-0.5,0.4-0.8,0.8-0.8c0.5,0,0.8,0.4,0.8,0.8C192.5,53.2,189.8,55.8,186.6,55.8z"/>
		</g>
	</g>
	<g id="XMLID_28_">
		<g id="XMLID_29_">
			<g id="XMLID_30_">
				<g id="XMLID_31_">
					<g id="XMLID_32_">
						<g id="XMLID_33_">
							<g id="XMLID_34_">
								<g id="XMLID_35_">
									<path id="XMLID_36_" class="st30" d="M152.2,113.2c-0.9,0-1.7-0.3-2.5-0.8c-0.5-0.4-0.9-1-1.2-1.6l-9.8-20.6
										c0-0.1,0-0.2,0.1-0.2l7-3.3c0.1,0,0.2,0,0.2,0.1l9.8,20.5c0.4,0.9,0.6,1.9,0.4,2.9c-0.3,1.2-1.1,2.2-2.2,2.8
										C153.4,113,152.8,113.2,152.2,113.2z M139.7,90.5l9.5,20c0.2,0.5,0.6,1,1,1.3c1.1,0.8,2.3,0.9,3.4,0.3
										c1.1-0.5,1.8-1.6,1.9-2.9c0-0.6-0.1-1.1-0.4-1.6l-9.5-19.9c0-0.1-0.2-0.1-0.2-0.1l-5.7,2.7
										C139.7,90.3,139.6,90.4,139.7,90.5z"/>
								</g>
							</g>
						</g>
					</g>
				</g>
			</g>
		</g>
	</g>
	<g id="XMLID_17_">
		<g id="XMLID_18_">
			<g id="XMLID_19_">
				<g id="XMLID_20_">
					<g id="XMLID_21_">
						<g id="XMLID_22_">
							<g id="XMLID_23_">
								<g id="XMLID_24_">
									<path id="XMLID_25_" class="st30" d="M137.8,90.9l-1.7-3.6c0-0.1,0-0.2,0.1-0.2l9-4.3c0.1,0,0.2,0,0.2,0.1l1.7,3.6
										c0,0.1,0,0.2-0.1,0.2l-9,4.3C138,91.1,137.9,91,137.8,90.9z M137.1,87.7l1.1,2.2c0,0.1,0.2,0.1,0.2,0.1l7.7-3.7
										c0.1,0,0.1-0.2,0.1-0.2l-1.1-2.2c0-0.1-0.2-0.1-0.2-0.1l-7.7,3.7C137.1,87.5,137.1,87.6,137.1,87.7z"/>
								</g>
							</g>
						</g>
					</g>
				</g>
			</g>
		</g>
	</g>
	<g id="XMLID_8_">
		<g id="XMLID_9_">
			<g id="XMLID_10_">
				<g id="XMLID_11_">
					<g id="XMLID_12_">
						<g id="XMLID_13_">
							<g id="XMLID_14_">
								<g id="XMLID_15_">
									<path id="XMLID_16_" class="st30" d="M140.1,89.7l-1.6-3.4c0-0.1,0-0.2,0.1-0.2l2.4-1.1c0.1,0,0.2,0,0.2,0.1l1.4,2.9
										c0,0.1,0.2,0.1,0.2,0.1l1.2-0.6c0.1,0,0.1-0.2,0.1-0.2l-1.3-2.7l0.7-0.3l1.6,3.4c0,0.1,0,0.2-0.1,0.2l-2.6,1.2
										c-0.1,0-0.2,0-0.2-0.1l-1.4-2.9c0-0.1-0.2-0.1-0.2-0.1l-1,0.5c-0.1,0-0.1,0.2-0.1,0.2l1.3,2.7L140.1,89.7z"/>
								</g>
							</g>
						</g>
					</g>
				</g>
			</g>
		</g>
	</g>
	<path id="XMLID_2_" class="st30" d="M155.8,108.4c-0.6-1.6-5.3-12.4-5.9-13.6c0-0.1-0.1-0.1-0.2-0.1H142c-0.1,0-0.2,0.1-0.2,0.3
		l7.7,16.5c0,0,0,0.1,0.1,0.1c0.3,0.2,2.8,1.9,4.2,0.7C155.2,111,156.4,110.1,155.8,108.4z M147.3,102.3c-0.3,0-0.6-0.3-0.6-0.6
		s0.3-0.6,0.6-0.6s0.6,0.3,0.6,0.6S147.6,102.3,147.3,102.3z M147.9,99.6c-0.4,0-0.8-0.3-0.8-0.8c0-0.4,0.3-0.8,0.8-0.8
		c0.4,0,0.8,0.3,0.8,0.8C148.6,99.3,148.3,99.6,147.9,99.6z M149.7,101.9c-0.4,0-0.8-0.3-0.8-0.8c0-0.4,0.3-0.8,0.8-0.8
		c0.4,0,0.8,0.3,0.8,0.8C150.5,101.5,150.2,101.9,149.7,101.9z"/>
</g>
</svg>
