<?xml version="1.0" encoding="utf-8"?>
<!-- Generator: Adobe Illustrator 19.0.0, SVG Export Plug-In . SVG Version: 6.00 Build 0)  -->
<svg version="1.1" id="Layer_1" xmlns="http://www.w3.org/2000/svg" xmlns:xlink="http://www.w3.org/1999/xlink" x="0px" y="0px"
	 viewBox="281.6 282.8 1793.9 69" style="enable-background:new 281.6 282.8 1793.9 69;" xml:space="preserve">
<style type="text/css">
	.st0{fill:#D80001;}
</style>
<g>
	<polygon points="292.9,342.4 306,342.4 306,315.9 321.6,342.4 333.8,342.4 333.8,292.4 314.9,292.4 314.9,304.6 321.2,304.6 
		321.2,321.1 304.6,293.5 292.9,293.5 	"/>
	<polygon points="338.2,292.7 338.2,342.3 350.4,342.3 350.4,322.6 364.6,322.6 364.6,342.5 378.1,342.5 378.1,292.4 359,292.4 
		359,304.1 365.2,304.1 365.2,310.6 349.6,310.6 349.6,292.8 	"/>
	<polygon class="st0" points="381.6,304.3 388,304.3 388,329.2 381.6,329.2 381.6,342.4 408,342.4 408,329.2 401.6,329.2 
		401.6,304.3 408,304.3 408,292.4 381.6,292.4 	"/>
	<path class="st0" d="M421.3,342.4v-23.1c0,0-0.4-1.9,1.7-1.9c1.9,0,1.6,1.8,1.6,1.8l0,23.1l10,0v-23.1c0,0,1.9-13.5-11.7-13.5
		c-13.5,0-13.2,13.5-13.2,13.5v23.2H421.3z"/>
	<path d="M436.2,342.1l13.3,0.1v-38.3h8.9c0,0,2.8-0.3,2.8,4.9s-3.2,6.7-3.2,6.7l-6.7,0v10h11.4c0,0,11.8-2.5,11.8-14.8
		c0-12.3-12-16.9-12-16.9h-26.3V342.1z"/>
</g>
<g>
	<path d="M540.7,296.8c0,0.7-0.4,1.1-1.1,1.2l-3.9,0.8v43.5h-3.3c-0.9,0-1.7-0.4-2.3-1.1l-28-36.5c0.1,0.8,0.1,1.8,0.1,3.1v29.6
		c1.3,0.2,2.8,0.5,4.5,0.8c0.6,0.1,0.9,0.5,0.9,1.2v2.9h-16.1v-2.9c0-0.7,0.3-1.1,1-1.2l3.9-0.8v-38.5c-2.2-0.4-3.4-0.7-3.9-0.8
		c-0.7-0.1-1-0.6-1-1.3v-2.9h8.2c0.6,0,1,0.1,1.3,0.2c0.2,0.1,0.5,0.4,1,0.9l28,36.5c-0.1-0.6-0.1-1.7-0.1-3.2v-29.3
		c-1.3-0.2-2.3-0.3-3.1-0.5c-0.8-0.2-1.2-0.3-1.4-0.3c-0.7-0.1-1.1-0.5-1.1-1.2v-3h16.2V296.8z"/>
	<path d="M591.3,339.5v2.7h-13.9v-2.7c0-0.6,0.3-0.9,0.9-1.1l2.8-0.8l-3.8-9.7h-20.9l-3.8,9.7l2.8,0.8c0.6,0.1,0.9,0.5,0.9,1.1v2.7
		h-13.9v-2.7c0-0.6,0.3-0.9,0.9-1.1l2.7-0.8l17.6-43.8h6.6l17.5,43.8l2.7,0.8C591.1,338.6,591.3,338.9,591.3,339.5z M568.4,304.6
		c-0.4-0.9-0.9-2.4-1.5-4.6c-0.5,2.1-1,3.6-1.4,4.6l-7.2,18.6h17.2L568.4,304.6z"/>
	<path d="M629.9,304.5h-3.3c-0.7,0-1.1-0.2-1.3-0.7c-0.2-0.8-0.5-2.3-0.7-4.5h-11.4v38l0.8,0.1c2.1,0.4,3.2,0.6,3.4,0.7
		c0.4,0.1,0.7,0.5,0.7,1.2v2.8h-16.4v-2.8c0-0.4,0.1-0.7,0.3-0.9c0.2-0.2,0.5-0.4,0.8-0.4l3.7-0.7v-38h-11.4c-0.3,2.5-0.5,4-0.6,4.5
		c-0.1,0.5-0.6,0.7-1.4,0.7H590v-10.7h39.9V304.5z"/>
	<path d="M644.7,337.3l4.1,0.8c0.5,0.1,0.8,0.5,0.8,1.2v2.9h-16.3v-2.9c0-0.7,0.3-1.1,0.9-1.3l3.9-0.7v-38.6l-4.1-0.8
		c-0.5-0.1-0.8-0.5-0.8-1.2v-2.8h16.3v2.8c0,0.7-0.3,1.1-1,1.3l-3.9,0.7V337.3z"/>
	<path d="M697.8,331c-2,3.8-4.8,6.7-8.4,8.8c-3.6,2.1-7.7,3.1-12.3,3.1c-4.6,0-8.8-1.1-12.4-3.2c-3.6-2.1-6.5-5.1-8.5-8.8
		c-2-3.8-3-8-3-12.8s1-9,3-12.8c2-3.8,4.8-6.7,8.4-8.8c3.6-2.1,7.8-3.2,12.5-3.2c4.7,0,8.8,1,12.4,3.1c3.6,2.1,6.4,5,8.4,8.8
		c2,3.7,3,8,3,12.8l-0.1,0.1C700.8,323,699.8,327.3,697.8,331z M689.6,304.3c-3-3.4-7.2-5.2-12.7-5.2c-3.6,0-6.8,0.8-9.3,2.4
		c-2.6,1.6-4.5,3.9-5.8,6.8c-1.3,2.9-2,6.2-2,9.9c0,3.8,0.7,7.2,2.1,10c1.4,2.9,3.4,5.1,6,6.7c2.6,1.6,5.6,2.4,9.2,2.4
		c3.6,0,6.6-0.8,9.2-2.4c2.6-1.6,4.5-3.8,5.9-6.7c1.4-2.9,2.1-6.2,2.1-9.9h-0.1C694.1,312.3,692.6,307.7,689.6,304.3z"/>
	<path d="M753.1,296.8c0,0.7-0.4,1.1-1.1,1.2l-3.9,0.8v43.5h-3.3c-0.9,0-1.7-0.4-2.3-1.1l-28-36.5c0.1,0.8,0.1,1.8,0.1,3.1v29.6
		c1.3,0.2,2.8,0.5,4.5,0.8c0.6,0.1,0.9,0.5,0.9,1.2v2.9h-16.1v-2.9c0-0.7,0.3-1.1,1-1.2l3.9-0.8v-38.5c-2.2-0.4-3.4-0.7-3.9-0.8
		c-0.7-0.1-1-0.6-1-1.3v-2.9h8.2c0.6,0,1,0.1,1.3,0.2c0.2,0.1,0.5,0.4,1,0.9l28,36.5c-0.1-0.6-0.1-1.7-0.1-3.2v-29.3
		c-1.3-0.2-2.3-0.3-3.1-0.5c-0.8-0.2-1.2-0.3-1.4-0.3c-0.7-0.1-1.1-0.5-1.1-1.2v-3h16.2V296.8z"/>
	<path d="M803.8,339.5v2.7h-13.9v-2.7c0-0.6,0.3-0.9,0.9-1.1l2.8-0.8l-3.8-9.7h-20.9l-3.8,9.7l2.8,0.8c0.6,0.1,0.9,0.5,0.9,1.1v2.7
		H755v-2.7c0-0.6,0.3-0.9,0.9-1.1l2.7-0.8l17.6-43.8h6.6l17.5,43.8l2.7,0.8C803.5,338.6,803.8,338.9,803.8,339.5z M780.8,304.6
		c-0.4-0.9-0.9-2.4-1.5-4.6c-0.5,2.1-1,3.6-1.4,4.6l-7.2,18.6H788L780.8,304.6z"/>
	<path d="M807.7,342.2v-2.9c0-0.3,0.1-0.6,0.3-0.8c0.2-0.2,0.4-0.4,0.7-0.4l3.9-0.7v-38.6l-3.9-0.7c-0.3,0-0.6-0.2-0.7-0.4
		c-0.2-0.2-0.3-0.5-0.3-0.8v-2.8H824v2.8c0,0.3-0.1,0.6-0.3,0.8c-0.2,0.2-0.4,0.4-0.7,0.4l-3.9,0.7v38h17.4c0.1-2.1,0.3-3.4,0.4-3.9
		c0-0.3,0.2-0.6,0.5-0.8c0.3-0.2,0.6-0.3,0.9-0.3h3.3v10.5H807.7z"/>
	<path d="M904.8,337.3l4.1,0.8c0.5,0.1,0.8,0.5,0.8,1.2v2.9h-16.4v-2.9c0-0.7,0.4-1.1,1.1-1.3l3.8-0.7v-17.1h-26.1v17.1
		c3.2,0.7,4.9,1.4,4.9,2v2.9h-16.3v-2.9c0-0.7,0.3-1.1,1-1.3l3.9-0.7v-38.6l-4.1-0.8c-0.5-0.1-0.8-0.5-0.8-1.2v-2.8H877v2.8
		c0,0.7-0.2,1.1-0.7,1.2c-0.5,0.1-1.9,0.4-4.1,0.8v16.7h26.1v-16.7l-4.1-0.8c-0.5-0.1-0.8-0.5-0.8-1.2v-2.8h16.4v2.8
		c0,0.7-0.3,1.1-1,1.3l-3.9,0.7V337.3z"/>
	<path d="M948.8,305.5h-3.2c-0.8,0-1.3-0.4-1.4-1.1l-0.5-5.2h-18.1v16.1h17.8v5.1h-17.8v16.6h18.1l0.4-4.9c0.1-0.7,0.6-1.1,1.5-1.1
		h3.2v11.2h-34.7v-2.8c0-0.7,0.3-1.1,1-1.3l3.9-0.7v-38.6c-2.2-0.4-3.4-0.7-3.9-0.8c-0.7-0.1-1-0.6-1-1.3v-2.8h34.7V305.5z"/>
	<path d="M1002,339.5v2.7h-13.9v-2.7c0-0.6,0.3-0.9,0.9-1.1l2.8-0.8l-3.8-9.7h-20.9l-3.8,9.7l2.8,0.8c0.6,0.1,0.9,0.5,0.9,1.1v2.7
		h-13.9v-2.7c0-0.6,0.3-0.9,0.9-1.1l2.7-0.8l17.6-43.8h6.6l17.5,43.8l2.7,0.8C1001.7,338.6,1002,338.9,1002,339.5z M979.1,304.6
		c-0.4-0.9-0.9-2.4-1.5-4.6c-0.5,2.1-1,3.6-1.4,4.6l-7.2,18.6h17.2L979.1,304.6z"/>
	<path d="M1005.9,342.2v-2.9c0-0.3,0.1-0.6,0.3-0.8c0.2-0.2,0.4-0.4,0.7-0.4l3.9-0.7v-38.6l-3.9-0.7c-0.3,0-0.6-0.2-0.7-0.4
		c-0.2-0.2-0.3-0.5-0.3-0.8v-2.8h16.2v2.8c0,0.3-0.1,0.6-0.3,0.8c-0.2,0.2-0.4,0.4-0.7,0.4l-3.9,0.7v38h17.4
		c0.1-2.1,0.3-3.4,0.4-3.9c0-0.3,0.2-0.6,0.5-0.8c0.3-0.2,0.6-0.3,0.9-0.3h3.3v10.5H1005.9z"/>
	<path d="M1077.7,304.5h-3.3c-0.7,0-1.1-0.2-1.3-0.7c-0.2-0.8-0.5-2.3-0.7-4.5h-11.4v38l0.8,0.1c2.1,0.4,3.2,0.6,3.4,0.7
		c0.4,0.1,0.7,0.5,0.7,1.2v2.8h-16.4v-2.8c0-0.4,0.1-0.7,0.3-0.9c0.2-0.2,0.5-0.4,0.8-0.4l3.7-0.7v-38H1043c-0.3,2.5-0.5,4-0.6,4.5
		c-0.1,0.5-0.6,0.7-1.4,0.7h-3.2v-10.7h39.9V304.5z"/>
	<path d="M1125.2,337.3l4.1,0.8c0.5,0.1,0.8,0.5,0.8,1.2v2.9h-16.4v-2.9c0-0.7,0.4-1.1,1.1-1.3l3.8-0.7v-17.1h-26.1v17.1
		c3.2,0.7,4.9,1.4,4.9,2v2.9h-16.3v-2.9c0-0.7,0.3-1.1,1-1.3l3.9-0.7v-38.6l-4.1-0.8c-0.5-0.1-0.8-0.5-0.8-1.2v-2.8h16.3v2.8
		c0,0.7-0.2,1.1-0.7,1.2c-0.5,0.1-1.9,0.4-4.1,0.8v16.7h26.1v-16.7l-4.1-0.8c-0.5-0.1-0.8-0.5-0.8-1.2v-2.8h16.4v2.8
		c0,0.7-0.3,1.1-1,1.3l-3.9,0.7V337.3z"/>
	<path d="M1173.3,308h-3.2c-0.9,0-1.4-0.4-1.5-1.2l-0.5-6.1c-3.8-1.2-7.2-1.8-10.2-1.8c-5.1,0-9.3,1.7-12.6,5.1
		c-3.3,3.6-4.9,8.2-4.9,14c0,3.7,0.7,7.1,2.1,9.9c1.4,2.9,3.3,5.1,5.9,6.7c2.5,1.6,5.5,2.4,8.9,2.4c2.6,0,4.9-0.3,6.9-1
		c2-0.7,3.8-1.8,5.5-3.3c0.4-0.4,0.8-0.5,1.2-0.5c0.4,0,0.7,0.1,0.9,0.4l2.6,2.8c-4.2,4.9-10,7.3-17.4,7.3c-4.7,0-8.8-1.1-12.3-3.2
		c-3.5-2.1-6.2-5.1-8-8.8c-1.9-3.7-2.8-8-2.8-12.7c0-7.3,2.3-13.2,6.8-17.8c4.5-4.6,10.6-6.9,18.3-6.9c3.6,0,8.4,1.1,14.5,3.4V308z"
		/>
	<path d="M1225.7,339.5v2.7h-13.9v-2.7c0-0.6,0.3-0.9,0.9-1.1l2.8-0.8l-3.8-9.7h-20.9l-3.8,9.7l2.8,0.8c0.6,0.1,0.9,0.5,0.9,1.1v2.7
		h-13.9v-2.7c0-0.6,0.3-0.9,0.9-1.1l2.7-0.8l17.6-43.8h6.6l17.5,43.8l2.7,0.8C1225.4,338.6,1225.7,338.9,1225.7,339.5z
		 M1202.7,304.6c-0.4-0.9-0.9-2.4-1.5-4.6c-0.5,2.1-1,3.6-1.4,4.6l-7.2,18.6h17.2L1202.7,304.6z"/>
	<path d="M1270.4,338.5c0.2,0.2,0.3,0.5,0.3,0.8v3h-7c-1.2,0-2-0.5-2.6-1.4l-12.6-17.3c-0.3-0.5-0.7-0.8-1.2-1.1
		c-0.4-0.3-1.1-0.4-2-0.4h-4.3v15.3l3.8,0.8c0.3,0.1,0.6,0.2,0.8,0.4c0.2,0.2,0.3,0.5,0.3,0.8v2.9h-16.3v-2.9c0-0.3,0.1-0.6,0.3-0.8
		c0.2-0.2,0.4-0.3,0.7-0.4l3.9-0.8v-38.5l-3.9-0.8c-0.3-0.1-0.6-0.2-0.7-0.4c-0.2-0.2-0.3-0.5-0.3-0.8v-3h17.9c3,0,5.7,0.3,8,0.9
		c2.3,0.6,4.1,1.5,5.5,2.7c1.5,1.2,2.6,2.6,3.2,4.3s1,3.5,1,5.6c0,1.7-0.3,3.2-0.8,4.7c-0.5,1.4-1.3,2.8-2.4,4.1
		c-1,1.3-2.3,2.3-3.7,3c-1.8,1-3.5,1.6-5,2c0.8,0.5,1.5,1.2,2.2,2l10.5,14.3c2.2,0.4,3.4,0.6,3.8,0.7h-0.1
		C1270,338.1,1270.2,338.3,1270.4,338.5z M1252.1,316.5c1.4-0.5,2.6-1.1,3.6-2c1-0.9,1.7-1.8,2.2-3c0.5-1.1,0.7-2.4,0.7-3.9
		c0-2.8-0.9-5-2.8-6.5c-1.8-1.4-4.7-2.2-8.4-2.2h-6.6v18.2h6.1C1249,317.2,1250.7,317,1252.1,316.5z"/>
	<path d="M1309.5,305.5h-3.2c-0.8,0-1.3-0.4-1.4-1.1l-0.5-5.2h-18.1v16.1h17.8v5.1h-17.8v16.6h18.1l0.4-4.9c0.1-0.7,0.6-1.1,1.5-1.1
		h3.2v11.2h-34.7v-2.8c0-0.7,0.3-1.1,1-1.3l3.9-0.7v-38.6c-2.2-0.4-3.4-0.7-3.9-0.8c-0.7-0.1-1-0.6-1-1.3v-2.8h34.7V305.5z"/>
	<path d="M1340.3,337.3l4.1,0.8c0.5,0.1,0.8,0.5,0.8,1.2v2.9H1329v-2.9c0-0.7,0.3-1.1,0.9-1.3l3.9-0.7v-38.6l-4.1-0.8
		c-0.5-0.1-0.8-0.5-0.8-1.2v-2.8h16.3v2.8c0,0.7-0.3,1.1-1,1.3l-3.9,0.7V337.3z"/>
	<path d="M1398.7,296.8c0,0.7-0.4,1.1-1.1,1.2l-3.9,0.8v43.5h-3.3c-0.9,0-1.7-0.4-2.3-1.1l-28-36.5c0.1,0.8,0.1,1.8,0.1,3.1v29.6
		c1.3,0.2,2.8,0.5,4.5,0.8c0.6,0.1,0.9,0.5,0.9,1.2v2.9h-16.1v-2.9c0-0.7,0.3-1.1,1-1.2l3.9-0.8v-38.5c-2.2-0.4-3.4-0.7-3.9-0.8
		c-0.7-0.1-1-0.6-1-1.3v-2.9h8.2c0.6,0,1,0.1,1.3,0.2c0.2,0.1,0.5,0.4,1,0.9l28,36.5c-0.1-0.6-0.1-1.7-0.1-3.2v-29.3
		c-1.3-0.2-2.3-0.3-3.1-0.5c-0.8-0.2-1.2-0.3-1.4-0.3c-0.7-0.1-1.1-0.5-1.1-1.2v-3h16.2V296.8z"/>
	<path d="M1451.1,296.8c0,0.7-0.4,1.1-1.1,1.2l-3.9,0.8v43.5h-3.3c-0.9,0-1.7-0.4-2.3-1.1l-28-36.5c0.1,0.8,0.1,1.8,0.1,3.1v29.6
		c1.3,0.2,2.8,0.5,4.5,0.8c0.6,0.1,0.9,0.5,0.9,1.2v2.9H1402v-2.9c0-0.7,0.3-1.1,1-1.2l3.9-0.8v-38.5c-2.2-0.4-3.4-0.7-3.9-0.8
		c-0.7-0.1-1-0.6-1-1.3v-2.9h8.2c0.6,0,1,0.1,1.3,0.2c0.2,0.1,0.5,0.4,1,0.9l28,36.5c-0.1-0.6-0.1-1.7-0.1-3.2v-29.3
		c-1.3-0.2-2.3-0.3-3.1-0.5c-0.8-0.2-1.2-0.3-1.4-0.3c-0.7-0.1-1.1-0.5-1.1-1.2v-3h16.2V296.8z"/>
	<path d="M1498.3,331c-2,3.8-4.8,6.7-8.4,8.8s-7.7,3.1-12.3,3.1c-4.6,0-8.8-1.1-12.4-3.2c-3.6-2.1-6.5-5.1-8.5-8.8
		c-2-3.8-3-8-3-12.8s1-9,3-12.8c2-3.8,4.8-6.7,8.4-8.8c3.6-2.1,7.8-3.2,12.5-3.2s8.8,1,12.4,3.1c3.6,2.1,6.4,5,8.4,8.8
		c2,3.7,3,8,3,12.8l-0.1,0.1C1501.4,323,1500.4,327.3,1498.3,331z M1490.1,304.3c-3-3.4-7.2-5.2-12.7-5.2c-3.6,0-6.8,0.8-9.3,2.4
		s-4.5,3.9-5.8,6.8c-1.3,2.9-2,6.2-2,9.9c0,3.8,0.7,7.2,2.1,10c1.4,2.9,3.4,5.1,6,6.7c2.6,1.6,5.6,2.4,9.2,2.4
		c3.6,0,6.6-0.8,9.2-2.4c2.6-1.6,4.5-3.8,5.9-6.7c1.4-2.9,2.1-6.2,2.1-9.9h-0.1C1494.6,312.3,1493.1,307.7,1490.1,304.3z"/>
	<path d="M1552.3,296.8c0,0.7-0.3,1.1-0.9,1.2l-3.4,0.8l-17.8,43.5h-5.9l-17.7-43.5c-1.9-0.4-3-0.7-3.4-0.8c-0.7-0.1-1-0.5-1-1.2v-3
		h16.1v3c0,0.7-0.5,1.1-1.4,1.3l-1.5,0.3l-2,0.4l12.4,30.7c0.5,1.1,1,2.8,1.6,5.3c0.6-2.6,1.1-4.4,1.6-5.3l12.2-30.7
		c-2.2-0.4-3.4-0.7-3.9-0.8c-0.7-0.1-1-0.6-1-1.3v-2.8l16,0.1V296.8z"/>
	<path d="M1593.2,339.5v2.7h-13.9v-2.7c0-0.6,0.3-0.9,0.9-1.1l2.8-0.8l-3.8-9.7h-20.9l-3.8,9.7l2.8,0.8c0.6,0.1,0.9,0.5,0.9,1.1v2.7
		h-13.9v-2.7c0-0.6,0.3-0.9,0.9-1.1l2.7-0.8l17.6-43.8h6.6l17.5,43.8l2.7,0.8C1592.9,338.6,1593.2,338.9,1593.2,339.5z
		 M1570.2,304.6c-0.4-0.9-0.9-2.4-1.5-4.6c-0.5,2.1-1,3.6-1.4,4.6l-7.2,18.6h17.2L1570.2,304.6z"/>
	<path d="M1631.7,304.5h-3.3c-0.7,0-1.1-0.2-1.3-0.7c-0.2-0.8-0.5-2.3-0.7-4.5h-11.4v38l0.8,0.1c2.1,0.4,3.2,0.6,3.4,0.7
		c0.4,0.1,0.7,0.5,0.7,1.2v2.8h-16.4v-2.8c0-0.4,0.1-0.7,0.3-0.9c0.2-0.2,0.5-0.4,0.8-0.4l3.7-0.7v-38h-11.4c-0.3,2.5-0.5,4-0.6,4.5
		c-0.1,0.5-0.6,0.7-1.4,0.7h-3.2v-10.7h39.9V304.5z"/>
	<path d="M1646.5,337.3l4.1,0.8c0.5,0.1,0.8,0.5,0.8,1.2v2.9h-16.3v-2.9c0-0.7,0.3-1.1,0.9-1.3l3.9-0.7v-38.6l-4.1-0.8
		c-0.5-0.1-0.8-0.5-0.8-1.2v-2.8h16.3v2.8c0,0.7-0.3,1.1-1,1.3l-3.9,0.7V337.3z"/>
	<path d="M1699.7,331c-2,3.8-4.8,6.7-8.4,8.8s-7.7,3.1-12.3,3.1c-4.6,0-8.8-1.1-12.4-3.2c-3.6-2.1-6.5-5.1-8.5-8.8
		c-2-3.8-3-8-3-12.8s1-9,3-12.8c2-3.8,4.8-6.7,8.4-8.8c3.6-2.1,7.8-3.2,12.5-3.2s8.8,1,12.4,3.1c3.6,2.1,6.4,5,8.4,8.8
		c2,3.7,3,8,3,12.8l-0.1,0.1C1702.7,323,1701.7,327.3,1699.7,331z M1691.4,304.3c-3-3.4-7.2-5.2-12.7-5.2c-3.6,0-6.8,0.8-9.3,2.4
		s-4.5,3.9-5.8,6.8c-1.3,2.9-2,6.2-2,9.9c0,3.8,0.7,7.2,2.1,10c1.4,2.9,3.4,5.1,6,6.7c2.6,1.6,5.6,2.4,9.2,2.4
		c3.6,0,6.6-0.8,9.2-2.4c2.6-1.6,4.5-3.8,5.9-6.7c1.4-2.9,2.1-6.2,2.1-9.9h-0.1C1695.9,312.3,1694.4,307.7,1691.4,304.3z"/>
	<path d="M1755,296.8c0,0.7-0.4,1.1-1.1,1.2l-3.9,0.8v43.5h-3.3c-0.9,0-1.7-0.4-2.3-1.1l-28-36.5c0.1,0.8,0.1,1.8,0.1,3.1v29.6
		c1.3,0.2,2.8,0.5,4.5,0.8c0.6,0.1,0.9,0.5,0.9,1.2v2.9h-16.1v-2.9c0-0.7,0.3-1.1,1-1.2l3.9-0.8v-38.5c-2.2-0.4-3.4-0.7-3.9-0.8
		c-0.7-0.1-1-0.6-1-1.3v-2.9h8.2c0.6,0,1,0.1,1.3,0.2c0.2,0.1,0.5,0.4,1,0.9l28,36.5c-0.1-0.6-0.1-1.7-0.1-3.2v-29.3
		c-1.3-0.2-2.3-0.3-3.1-0.5c-0.8-0.2-1.2-0.3-1.4-0.3c-0.7-0.1-1.1-0.5-1.1-1.2v-3h16.2V296.8z"/>
	<path d="M1788.7,327.5c0,4.5-1.4,8.1-4.2,10.9c-2.9,2.9-6.9,4.4-12,4.4c-2.1,0-4.3-0.2-6.6-0.6c-1.8-0.3-3.6-0.7-5.4-1.3l-2-0.7
		V328h3.3c0.8,0,1.2,0.4,1.4,1.1c0.1,0.4,0.2,1.5,0.3,3.3l0.2,3c3.5,1.3,6.3,1.9,8.2,1.9s3.6-0.2,5-0.7c1.3-0.4,2.3-1,3.1-1.8
		c1.7-1.6,2.6-3.7,2.6-6.4c0-2.6-1.2-4.6-3.6-5.9c-1.1-0.7-2.3-1.2-3.6-1.6c-4.8-1.5-7.7-2.4-8.5-2.8c-1.3-0.6-2.5-1.4-3.7-2.4
		c-2.4-2.1-3.6-5.1-3.6-9.1c0-3.6,1.3-6.6,3.9-9.2c2.8-2.7,6.4-4.1,10.8-4.1c4.7,0,9.2,0.9,13.6,2.7v11.2h-3.2
		c-0.8,0-1.3-0.4-1.4-1.1c0-0.1,0-0.6-0.1-1.4s-0.2-2.3-0.4-4.6c-3.2-0.9-5.8-1.3-8-1.3c-2.9,0-5.2,0.7-6.8,2.2
		c-1.5,1.4-2.3,3.2-2.3,5.4c0,2.4,1.2,4.3,3.6,5.6c1,0.6,2.3,1.2,3.8,1.7c4.1,1.4,6.9,2.4,8.5,3h-0.1
		C1786.2,318.8,1788.7,322.4,1788.7,327.5z"/>
	<path d="M1843.3,308.8c0,4.6-1.5,8.3-4.6,10.9c-3.3,2.9-7.8,4.3-13.4,4.3h-6.9v13.2c0.4,0.1,1.7,0.4,3.9,0.8
		c0.6,0.1,0.9,0.6,0.9,1.3v2.8h-16.2v-2.8c0-0.7,0.3-1.1,1-1.3l3.9-0.7v-38.6c-2.2-0.4-3.4-0.7-3.9-0.8c-0.7-0.1-1-0.6-1-1.3v-2.8
		h18.2c3,0,5.7,0.3,8,1v-0.1C1840,296.9,1843.3,301.6,1843.3,308.8z M1833.9,301.5c-1.8-1.7-4.7-2.6-8.6-2.6h-6.9v19.9h6.9
		c3.6,0,6.5-0.9,8.4-2.7c2-1.8,3-4.3,3-7.4l-0.1-0.1C1836.8,305.7,1835.8,303.3,1833.9,301.5z"/>
	<path d="M1890.9,331c-2,3.8-4.8,6.7-8.4,8.8s-7.7,3.1-12.3,3.1c-4.6,0-8.8-1.1-12.4-3.2c-3.6-2.1-6.5-5.1-8.5-8.8
		c-2-3.8-3-8-3-12.8s1-9,3-12.8c2-3.8,4.8-6.7,8.4-8.8c3.6-2.1,7.8-3.2,12.5-3.2s8.8,1,12.4,3.1c3.6,2.1,6.4,5,8.4,8.8
		c2,3.7,3,8,3,12.8l-0.1,0.1C1894,323,1892.9,327.3,1890.9,331z M1882.7,304.3c-3-3.4-7.2-5.2-12.7-5.2c-3.6,0-6.8,0.8-9.3,2.4
		s-4.5,3.9-5.8,6.8c-1.3,2.9-2,6.2-2,9.9c0,3.8,0.7,7.2,2.1,10c1.4,2.9,3.4,5.1,6,6.7c2.6,1.6,5.6,2.4,9.2,2.4
		c3.6,0,6.6-0.8,9.2-2.4c2.6-1.6,4.5-3.8,5.9-6.7c1.4-2.9,2.1-6.2,2.1-9.9h-0.1C1887.2,312.3,1885.7,307.7,1882.7,304.3z"/>
	<path d="M1938.8,338.5c0.2,0.2,0.3,0.5,0.3,0.8v3h-7c-1.2,0-2-0.5-2.6-1.4l-12.6-17.3c-0.3-0.5-0.7-0.8-1.2-1.1
		c-0.4-0.3-1.1-0.4-2-0.4h-4.3v15.3l3.8,0.8c0.3,0.1,0.6,0.2,0.8,0.4c0.2,0.2,0.3,0.5,0.3,0.8v2.9h-16.3v-2.9c0-0.3,0.1-0.6,0.3-0.8
		c0.2-0.2,0.4-0.3,0.7-0.4l3.9-0.8v-38.5l-3.9-0.8c-0.3-0.1-0.6-0.2-0.7-0.4c-0.2-0.2-0.3-0.5-0.3-0.8v-3h17.9c3,0,5.7,0.3,8,0.9
		c2.3,0.6,4.1,1.5,5.5,2.7c1.5,1.2,2.6,2.6,3.2,4.3s1,3.5,1,5.6c0,1.7-0.3,3.2-0.8,4.7c-0.5,1.4-1.3,2.8-2.4,4.1
		c-1,1.3-2.3,2.3-3.7,3c-1.8,1-3.5,1.6-5,2c0.8,0.5,1.5,1.2,2.2,2l10.5,14.3c2.2,0.4,3.4,0.6,3.8,0.7h-0.1
		C1938.4,338.1,1938.6,338.3,1938.8,338.5z M1920.5,316.5c1.4-0.5,2.6-1.1,3.6-2c1-0.9,1.7-1.8,2.2-3c0.5-1.1,0.7-2.4,0.7-3.9
		c0-2.8-0.9-5-2.8-6.5c-1.8-1.4-4.7-2.2-8.4-2.2h-6.6v18.2h6.1C1917.4,317.2,1919.1,317,1920.5,316.5z"/>
	<path d="M1980.5,304.5h-3.3c-0.7,0-1.1-0.2-1.3-0.7c-0.2-0.8-0.5-2.3-0.7-4.5h-11.4v38l0.8,0.1c2.1,0.4,3.2,0.6,3.4,0.7
		c0.4,0.1,0.7,0.5,0.7,1.2v2.8h-16.4v-2.8c0-0.4,0.1-0.7,0.3-0.9c0.2-0.2,0.5-0.4,0.8-0.4l3.7-0.7v-38h-11.4c-0.3,2.5-0.5,4-0.6,4.5
		c-0.1,0.5-0.6,0.7-1.4,0.7h-3.2v-10.7h39.9V304.5z"/>
	<path d="M2027.8,339.5v2.7h-13.9v-2.7c0-0.6,0.3-0.9,0.9-1.1l2.8-0.8l-3.8-9.7h-20.9l-3.8,9.7l2.8,0.8c0.6,0.1,0.9,0.5,0.9,1.1v2.7
		h-13.9v-2.7c0-0.6,0.3-0.9,0.9-1.1l2.7-0.8l17.6-43.8h6.6l17.5,43.8l2.7,0.8C2027.5,338.6,2027.8,338.9,2027.8,339.5z
		 M2004.8,304.6c-0.4-0.9-0.9-2.4-1.5-4.6c-0.5,2.1-1,3.6-1.4,4.6l-7.2,18.6h17.2L2004.8,304.6z"/>
	<path d="M2031.7,342.2v-2.9c0-0.3,0.1-0.6,0.3-0.8c0.2-0.2,0.4-0.4,0.7-0.4l3.9-0.7v-38.6l-3.9-0.7c-0.3,0-0.6-0.2-0.7-0.4
		c-0.2-0.2-0.3-0.5-0.3-0.8v-2.8h16.2v2.8c0,0.3-0.1,0.6-0.3,0.8c-0.2,0.2-0.4,0.4-0.7,0.4l-3.9,0.7v38h17.4
		c0.1-2.1,0.3-3.4,0.4-3.9c0-0.3,0.2-0.6,0.5-0.8c0.3-0.2,0.6-0.3,0.9-0.3h3.3v10.5H2031.7z"/>
</g>
</svg>
